<?xml version="1.0" encoding="UTF-8" standalone="no"?>
<svg
   xmlns:dc="http://purl.org/dc/elements/1.1/"
   xmlns:cc="http://creativecommons.org/ns#"
   xmlns:rdf="http://www.w3.org/1999/02/22-rdf-syntax-ns#"
   xmlns:svg="http://www.w3.org/2000/svg"
   xmlns="http://www.w3.org/2000/svg"
   xmlns:sodipodi="http://sodipodi.sourceforge.net/DTD/sodipodi-0.dtd"
   xmlns:inkscape="http://www.inkscape.org/namespaces/inkscape"
   inkscape:version="1.0 (4035a4f, 2020-05-01)"
   height="84.099998"
   width="599.90002"
   sodipodi:docname="coursera-vector-logo 2.svg"
   xml:space="preserve"
   viewBox="0 0 599.90002 84.099998"
   y="0px"
   x="0px"
   id="layer"
   version="1.1"><metadata
   id="metadata37"><rdf:RDF><cc:Work
       rdf:about=""><dc:format>image/svg+xml</dc:format><dc:type
         rdf:resource="http://purl.org/dc/dcmitype/StillImage" /></cc:Work></rdf:RDF></metadata><defs
   id="defs35" /><sodipodi:namedview
   inkscape:current-layer="layer"
   inkscape:window-maximized="0"
   inkscape:window-y="23"
   inkscape:window-x="0"
   inkscape:cy="7.1800027"
   inkscape:cx="251.83765"
   inkscape:zoom="0.43345235"
   showgrid="false"
   id="namedview33"
   inkscape:window-height="480"
   inkscape:window-width="787"
   inkscape:pageshadow="2"
   inkscape:pageopacity="0"
   guidetolerance="10"
   gridtolerance="10"
   objecttolerance="10"
   borderopacity="1"
   bordercolor="#666666"
   pagecolor="#ffffff" />
<style
   id="style10"
   type="text/css">
	.st0{fill:#4A89DC;}
</style>
<path
   id="path12"
   d="m 301.5,26.7 c 0.4,-7 2.9,-12.8 6.8,-17.3 v -6 H 303 c -10.6,0 -19.6,4.1 -24.8,13.3 h -0.3 V 4.5 h -27.2 v 74.7 h 27.2 V 49.1 c 0,-12.8 3.7,-22.5 18.9,-22.5 1.6,-0.1 3.2,-0.1 4.7,0.1 z"
   class="st0" />
<path
   id="path14"
   d="M 507.6,26.5 C 509.9,19.9 513.5,14 518.3,9.3 V 3.4 h -5.2 c -10.6,0 -19.6,4.1 -24.8,13.3 h -0.4 V 4.5 h -27.2 v 74.7 h 27.2 V 49.1 c 0,-12.8 3.8,-22.5 18.9,-22.5 z"
   class="st0" />
<path
   id="path16"
   d="m 356.7,23.7 c -4.2,-2.2 -10,-3.6 -14.7,-3.6 -3.1,0 -8.5,1.3 -8.5,5.1 0,5.1 8.5,5.8 12.3,6.6 12.7,2.5 22.3,8.3 22.3,22.1 0,19.6 -18.4,27.8 -36.2,27.8 -10.9,0 -21.7,-3.1 -31,-8.6 l 9.9,-18.5 c 5.5,3.8 14.8,7.6 21.5,7.6 3.4,0 8.5,-1.6 8.5,-5.7 0,-5.8 -8.5,-6.1 -17.1,-8.3 -8.5,-2.2 -17,-6.3 -17,-19.6 0,-18.3 17,-26.5 33.8,-26.5 8.7,0 17.4,1.3 25.3,4.8 z"
   class="st0" />
<path
   id="path18"
   d="m 599.9,79.1 h -27.2 v -8.3 h -0.3 c -4.8,7.4 -14.2,10.8 -23.2,10.8 -22.8,0 -38.8,-18.5 -38.8,-39.9 0,-21.4 15.7,-39.7 38.4,-39.7 8.8,0 18.1,3.2 23.8,9.7 V 4.4 h 27.3 z M 538.6,41.9 c 0,9.5 6.4,16.7 17.5,16.7 11.1,0 17.5,-7.3 17.5,-16.7 0,-9.2 -6.4,-16.9 -17.5,-16.9 -11.1,0 -17.5,7.7 -17.5,16.9 z"
   class="st0" />
<path
   id="path20"
   d="m 456.4,46.2 h -57.3 c 0,10.8 5.9,16.6 17.1,16.6 5.8,0 10,-1.9 13,-6.8 h 26.2 c -4.3,17.6 -21.5,25.6 -39,25.6 C 391,81.6 372,67.6 372,41.9 372,17 389.5,2 414.5,2 c 26.6,0 42.1,16 42.1,41.5 z M 431.1,31 c -1.3,-7.1 -8.1,-11.8 -15.4,-11.8 -7.9,0 -14.5,4.1 -16.2,11.8 0,0 31.6,0 31.6,0 z"
   class="st0" />
<g
   transform="translate(-21.1,-279.6)"
   id="g26">
	<g
   id="g24">
		<path
   id="path22"
   d="m 185.2,320.2 c 0,-0.6 -0.1,-1.3 -0.1,-1.9 0,0 0,0 0,0 0,0 0,0 0,0 -0.6,-6.9 -2.9,-13.4 -6.8,-19.3 -1.7,-2.6 -3.7,-5 -5.9,-7.1 -3.2,-3.1 -7,-5.7 -11.2,-7.7 -6.4,-3 -13.4,-4.6 -20.9,-4.6 -0.7,0 -1.5,0 -2.3,0 -5.3,0.2 -10.4,1.2 -15.2,3 -4.8,1.7 -9,4 -12.5,6.8 -0.7,0.6 -1.5,1.2 -2.3,2 l -0.6,0.6 -0.8,0.9 v 0 0 l -0.4,0.4 -0.2,0.2 -1,1 c -0.7,0.8 -1.4,1.6 -2,2.4 v 0 0 c -1.3,1.6 -2.5,3.3 -3.4,4.7 -0.6,1 -1.2,1.9 -1.8,2.9 L 90,320.4 v 0 l -0.4,0.8 -0.9,1.8 c -1.7,3.5 -3.6,7 -5.6,9.8 -4.6,5 -9.8,7.5 -16.5,7.5 -0.5,0 -0.9,0 -1.4,-0.1 -4,-0.2 -7.5,-1.1 -10.5,-2.9 -0.3,-0.2 -0.6,-0.4 -1,-0.6 -2.5,-1.7 -4.4,-3.8 -5.8,-6.5 -1.6,-3 -2.3,-6.1 -2.2,-9.4 0,-0.1 0,-0.2 0,-0.2 0.2,-5.2 2.2,-9.2 6.2,-12.7 1,-0.8 2,-1.5 3,-2.2 0.2,-0.1 0.3,-0.2 0.5,-0.3 3,-1.6 6.3,-2.4 10.2,-2.4 h 1.2 c 6.2,0.2 10.9,2.2 14.7,5.9 l 11.9,-21.3 c -2.8,-1.9 -6,-3.5 -9.6,-4.9 -0.1,0 -0.3,-0.1 -0.4,-0.1 -0.4,-0.1 -0.8,-0.3 -1.3,-0.4 -3.8,-1.3 -7.7,-2 -11.8,-2.4 v 0 c -0.1,0 -0.2,0 -0.3,0 -0.6,0 -1.3,-0.1 -1.9,-0.1 -0.7,0 -1.4,0 -2,0 h -0.4 c -7.5,0 -14.4,1.6 -20.7,4.6 -7,3.3 -12.8,8.2 -17,14.7 -4.3,6.4 -6.6,13.5 -6.9,21.2 0,0.7 0,1.3 0,1.9 0,10.7 3.9,20.1 11.6,28 8.1,8.3 18.6,12.8 31.3,13.3 0.8,0 1.6,0.1 2.4,0.1 7.2,0 13.8,-1.3 19.7,-3.8 1.5,-0.6 2.9,-1.4 4.4,-2.2 0.8,-0.5 1.6,-1 2.3,-1.5 l 0.6,-0.4 0.9,-0.6 c 1.1,-0.8 2.2,-1.7 3.2,-2.6 l 0.4,-0.3 c 0.6,-0.6 1.2,-1.1 1.8,-1.7 l 2.1,-2.4 0.8,-1 0.4,-0.6 0.4,-0.5 c 3.2,-5.3 13.4,-24.6 13.4,-24.6 v 0 l 0.6,-1.2 0.5,-0.9 c 1.5,-2.8 2.6,-4.7 4.1,-6.8 v -0.1 c 3.4,-4.9 9.2,-8.4 16.1,-9 11.5,-1 21.6,6.6 22.5,16.9 0.9,10.3 -7.7,19.5 -19.2,20.5 -2.4,0.2 -4.7,0 -6.9,-0.4 h -0.1 c -8.4,-1.8 -13.8,-7.9 -16.5,-10.7 L 106.8,350 c 0,0 3.4,3.5 5.8,5.2 2.4,1.7 5.4,3.4 7.8,4.5 5.9,2.5 12.3,4 19.4,4 0.8,0 0.7,0 1.5,0 12.6,-0.5 23.9,-5.4 32,-13.7 7.7,-7.9 11.9,-16.9 11.9,-27.5 V 322 c 0.1,-0.6 0.1,-1.2 0,-1.8 z"
   class="st0" />
	</g>
</g>
<g
   transform="translate(-21.1,-279.6)"
   id="g30">
	<path
   id="path28"
   d="m 227.6,361.3 c -5.7,0 -10.9,-0.7 -15.6,-2 -4.7,-1.3 -8.7,-3.4 -12,-6.3 -3.3,-2.9 -5.9,-6.6 -7.7,-11 -1.8,-4.5 -2.7,-9.8 -2.7,-16.1 V 284 h 26.3 v 41.4 c 0,4.7 1.1,8.1 3.4,10.2 2.2,2.1 5.1,3.2 8.6,3.2 3.5,0 6.4,-1 8.6,-3 2.2,-2 3.3,-5.3 3.3,-9.9 v -42 H 266 v 41.2 c 0,6.5 -0.9,12 -2.8,16.5 -1.8,4.5 -4.4,8.3 -7.8,11.1 -3.4,2.9 -7.4,5 -12.1,6.3 -4.8,1.6 -10,2.3 -15.7,2.3 z"
   class="st0" />
</g>
</svg>
