<?xml version="1.0" encoding="UTF-8" standalone="no"?>
<svg
   xmlns:dc="http://purl.org/dc/elements/1.1/"
   xmlns:cc="http://creativecommons.org/ns#"
   xmlns:rdf="http://www.w3.org/1999/02/22-rdf-syntax-ns#"
   xmlns:svg="http://www.w3.org/2000/svg"
   xmlns="http://www.w3.org/2000/svg"
   width="164.27945mm"
   height="89.402802mm"
   viewBox="0 0 164.27945 89.402802"
   version="1.1"
   id="svg8">
  <defs
     id="defs2" />
  <metadata
     id="metadata5">
    <rdf:RDF>
      <cc:Work
         rdf:about="">
        <dc:format>image/svg+xml</dc:format>
        <dc:type
           rdf:resource="http://purl.org/dc/dcmitype/StillImage" />
        <dc:title></dc:title>
      </cc:Work>
    </rdf:RDF>
  </metadata>
  <path
     id="path24"
     d="m 150.88996,89.27233 c -0.38346,-0.15473 -0.44773,-1.30873 -0.0854,-1.53268 0.27338,-0.16897 3.71981,-7.0386 3.72957,-7.43403 0.003,-0.13792 -1.38853,-3.00916 -3.0932,-6.38052 -2.64912,-5.23924 -3.04891,-6.19058 -2.75192,-6.54844 0.4265,-0.5139 2.22156,-0.55903 2.71118,-0.0682 0.19229,0.19279 1.30213,2.33493 2.46629,4.76032 1.43966,2.99934 2.2407,4.38873 2.50445,4.34395 0.43737,-0.0743 0.38443,0.0221 2.9015,-5.27993 1.98539,-4.18207 2.11015,-4.3103 4.0163,-4.12822 1.13917,0.10882 1.31176,0.88836 0.43558,1.96738 -0.34125,0.42025 -1.13539,1.83566 -1.76474,3.14535 -1.11243,2.31494 -2.11057,4.3105 -6.41646,12.82841 -1.13914,2.25345 -2.28005,4.17984 -2.53535,4.28089 -0.54058,0.21394 -1.64196,0.2377 -2.11784,0.0457 z M 68.99632,82.45148 c -1.939031,-0.65395 -2.839178,-1.29083 -2.839178,-2.00878 0,-0.25091 0.306385,-1.12542 0.680855,-1.94337 0.590693,-1.29024 0.778944,-1.48718 1.421575,-1.48718 0.407394,0 1.261872,0.22605 1.898832,0.50233 0.636963,0.27629 1.545066,0.58341 2.018009,0.68249 0.722588,0.15137 0.859758,0.10285 0.859033,-0.3039 -5.29e-4,-0.34973 -0.508833,-0.69237 -1.831472,-1.23478 -3.143652,-1.2892 -4.782249,-3.11709 -4.782249,-5.33468 0,-4.03151 4.863553,-6.19458 10.274191,-4.56946 2.670752,0.80218 2.976132,1.27209 2.126865,3.27272 -0.3449,0.81249 -0.90377,1.66445 -1.24194,1.89325 -0.56872,0.38478 -0.703245,0.37304 -1.793025,-0.15641 -1.327887,-0.64514 -2.751507,-0.76114 -2.751507,-0.22421 0,0.19151 0.684609,0.62901 1.521354,0.97225 3.172388,1.30131 4.757115,2.79789 5.017375,4.73831 0.33302,2.48281 -0.637637,4.14473 -3.041712,5.20793 -1.947898,0.86145 -4.971143,0.85884 -7.537006,-0.007 z m 69.39208,-0.0349 c -2.04085,-0.94786 -3.74631,-2.8406 -4.45801,-4.94759 -0.71312,-2.11118 -0.71732,-3.36064 -0.018,-5.35036 1.03002,-2.93061 3.2126,-4.83537 6.25163,-5.45586 3.0533,-0.62341 7.04835,0.82809 6.50289,2.36266 -0.42291,1.18977 -1.2699,1.41954 -2.62588,0.71235 -0.42069,-0.21941 -1.45178,-0.39598 -2.31761,-0.39688 -3.10373,-0.003 -5.18712,2.26044 -5.18712,5.636 0,1.54508 0.0917,1.84908 0.8599,2.85003 1.34408,1.75137 2.09883,2.18912 3.98111,2.30897 1.13326,0.0722 1.98249,-0.0289 2.67529,-0.31837 1.4032,-0.5863 1.92505,-0.53315 2.43701,0.2482 0.67466,1.02966 0.19148,1.76417 -1.61534,2.4556 -2.14442,0.82062 -4.57805,0.78132 -6.48588,-0.10475 z M 0.474329,82.54724 c -0.539134,-0.31402 -0.644213,-2.3782 -0.182838,-3.59171 0.154099,-0.40531 0.444421,-1.57392 0.645157,-2.59691 0.846736,-4.31507 1.791444,-8.50487 2.010455,-8.91639 0.655836,-1.23231 4.034354,-1.25703 4.994392,-0.0365 0.295063,0.37512 0.53648,0.8125 0.53648,0.97196 0,0.15946 0.229523,0.88755 0.51005,1.61796 0.280527,0.73042 0.652158,1.71499 0.82585,2.18793 0.568952,1.54921 1.08867,1.09903 2.188757,-1.89589 0.556115,-1.51399 1.219661,-2.94144 1.474547,-3.17211 0.708761,-0.64142 2.649575,-0.81442 3.79017,-0.33785 0.812633,0.33954 0.996092,0.56783 1.138745,1.41702 0.09353,0.55675 0.330359,1.54805 0.526293,2.20289 0.195935,0.65485 0.431909,1.60735 0.524389,2.11667 0.09248,0.50932 0.53794,2.53339 0.989917,4.49792 0.451977,1.96453 0.831181,3.92393 0.842674,4.35423 0.03018,1.12978 -0.845846,1.52107 -3.09477,1.38231 -2.202839,-0.13592 -2.765357,-0.56794 -2.995166,-2.30031 -0.09133,-0.68849 -0.259786,-1.40347 -0.374345,-1.58883 -0.356701,-0.57715 -1.011645,-0.0706 -1.344298,1.03969 -0.175165,0.58464 -0.64503,1.45414 -1.044146,1.93221 -0.649473,0.77797 -0.870025,0.86924 -2.100493,0.86924 -1.173332,0 -1.467004,-0.10717 -2.003767,-0.73119 C 7.986464,81.56742 7.492576,80.64469 7.234854,79.91906 6.922055,79.03835 6.616917,78.59973 6.317035,78.59973 c -0.49585,0 -0.622032,0.31646 -0.878983,2.20444 -0.154731,1.13691 -0.273386,1.31993 -1.072075,1.65364 -1.037217,0.43338 -3.215225,0.48345 -3.891648,0.0895 z m 23.878646,-0.0418 -0.661458,-0.34926 -0.07021,-7.43102 c -0.08219,-8.69989 -0.264673,-8.16401 2.78008,-8.16401 3.068508,0 2.978666,-0.2434 2.978666,8.06979 0,8.15063 0.05499,7.98355 -2.676625,8.13198 -1.057794,0.0575 -1.936197,-0.0387 -2.350458,-0.25748 z m 8.995833,-0.0147 -0.661458,-0.33452 -0.0702,-7.43102 c -0.06139,-6.4982 -0.01786,-7.47446 0.346768,-7.77708 0.671338,-0.55716 3.114267,-0.6483 4.106706,-0.1532 1.108234,0.55286 1.531321,0.53905 2.930025,-0.0956 2.599105,-1.17937 5.648492,-0.27005 7.280646,2.17107 0.704889,1.05427 0.863769,1.59224 1.015645,3.43905 0.269484,3.27684 0.06601,9.63994 -0.320588,10.02562 -0.458226,0.45715 -3.022491,0.61431 -4.118946,0.25244 -0.582771,-0.19233 -0.98602,-0.52337 -1.084371,-0.8902 -0.08612,-0.3212 -0.158207,-2.56966 -0.160194,-4.99657 l -0.0036,-4.41257 -0.69714,-0.54837 C 40.994,71.01762 40.297338,71.04798 39.098784,71.86242 l -0.98746,0.671 v 4.62067 c 0,5.53962 -0.06452,5.68155 -2.579687,5.6751 -0.836745,-0.002 -1.819011,-0.15444 -2.182813,-0.33842 z m 19.133442,0.0759 c -1.058658,-0.42654 -1.141775,-1.01046 -1.141775,-8.02124 0,-6.23698 0.0374,-6.78114 0.505791,-7.35958 0.500346,-0.6179 0.561475,-0.62462 5.679091,-0.62462 6.13396,0 6.118243,-0.006 6.118243,2.50976 0,0.89468 -0.140893,1.70571 -0.328998,1.89382 -0.219414,0.21941 -1.276954,0.33398 -3.175,0.34396 -2.346741,0.0123 -2.846002,0.0846 -2.846002,0.41183 0,0.3161 0.457737,0.41128 2.248959,0.46767 2.710907,0.0853 3.175,0.44239 3.175,2.44275 0,2.00035 -0.464093,2.35741 -3.175,2.44274 -1.791222,0.0564 -2.248959,0.15158 -2.248959,0.46767 0,0.32913 0.51017,0.39754 2.988596,0.40073 3.461544,0.004 3.483541,0.019 3.489645,2.31125 0.0067,2.53328 -0.10732,2.58298 -5.882928,2.56292 -2.655755,-0.009 -5.088753,-0.12157 -5.406663,-0.24966 z m 31.931148,0.0828 c -0.99715,-0.35637 -1.05834,-0.80856 -1.05834,-7.82184 0,-4.21314 0.10534,-7.04281 0.27389,-7.35777 0.33566,-0.62717 1.88453,-0.7022 2.37195,-0.11489 0.43351,0.52235 0.6722,0.50292 2.05709,-0.1675 1.50563,-0.72886 3.16251,-0.90599 4.7477,-0.50755 1.73132,0.43517 2.92338,1.41727 3.67214,3.02533 0.59848,1.28534 0.63053,1.62515 0.63298,6.71169 0.002,5.00693 -0.0321,5.39247 -0.52658,5.88698 -0.66154,0.66155 -0.82099,0.65973 -1.68411,-0.0192 l -0.69714,-0.54836 v -5.02102 c 0,-3.93711 -0.0854,-5.18607 -0.39536,-5.78557 -0.61123,-1.18199 -1.39648,-1.59042 -3.05773,-1.59042 -1.20348,0 -1.70801,0.14886 -2.6747,0.78917 -1.76155,1.1668 -1.85102,1.51767 -1.77703,6.96871 0.0634,4.67382 0.0544,4.76087 -0.54256,5.24429 -0.63968,0.51798 -0.70965,0.53403 -1.3422,0.30796 z m 15.54427,-0.10216 c -0.63774,-0.37145 -0.58105,-1.07743 0.227992,-2.83946 0.75746,-1.64969 1.61608,-3.58907 1.95482,-4.41539 0.11931,-0.29104 0.45492,-1.06494 0.74579,-1.71979 0.29088,-0.65484 0.96618,-2.20265 1.50067,-3.43958 0.53449,-1.23693 1.15911,-2.45732 1.38805,-2.71198 0.85865,-0.95512 3.24466,-0.33747 3.24466,0.83991 0,0.18437 0.1738,0.65124 0.38622,1.0375 0.51002,0.92736 3.2833,7.29758 3.75139,8.61694 0.20206,0.56951 0.46435,1.16483 0.58287,1.32291 0.11851,0.15809 0.43164,0.87186 0.69583,1.58617 0.4668,1.26211 0.46636,1.30897 -0.0154,1.66127 -1.16524,0.85204 -2.9809,-0.34966 -3.60024,-2.38284 -0.46496,-1.52642 -1.00227,-1.7678 -3.93515,-1.7678 -2.9186,0 -2.98512,0.0395 -4.01831,2.3859 -0.43019,0.97697 -0.87954,1.56772 -1.35848,1.78594 -0.85091,0.3877 -0.9498,0.39027 -1.550662,0.0403 z m 8.673562,-7.1887 c 0.1857,-0.49471 -1.11082,-3.49353 -1.55009,-3.58532 -0.40732,-0.0851 -1.87041,3.26793 -1.60989,3.68946 0.22607,0.36578 3.01813,0.27378 3.15998,-0.10414 z m 9.09177,7.11339 -0.63356,-0.31574 -0.0705,-7.23605 c -0.0498,-5.11729 0.0178,-7.34234 0.23083,-7.59908 0.40261,-0.48511 1.94084,-0.46299 2.35317,0.0338 0.43687,0.52639 0.6739,0.50399 2.09928,-0.19844 2.6241,-1.29317 6.43086,-0.49686 7.84576,1.64119 1.04451,1.57836 1.18609,2.5041 1.21309,7.93191 0.025,5.02436 0.0121,5.15228 -0.5685,5.6224 -0.77386,0.62663 -0.96127,0.60847 -1.73811,-0.16837 -0.6418,-0.6418 -0.64944,-0.70587 -0.64944,-5.45012 0,-6.42235 -0.44415,-7.3942 -3.3793,-7.3942 -1.59721,0 -2.49781,0.38824 -3.60688,1.55487 l -0.76848,0.80837 0.0454,4.70536 c 0.0482,4.99061 -0.10343,5.7826 -1.18217,6.17643 -0.3226,0.11777 -0.82372,0.0705 -1.19063,-0.11237 z M 65.991889,55.00348 C 42.796325,39.68459 30.97901,31.69213 30.829843,31.22215 c -0.11348,-0.35755 -0.0042,-0.73905 0.312306,-1.09026 0.5447,-0.60444 17.807874,-12.15323 18.930718,-12.66436 0.590966,-0.26901 0.823151,-0.25623 1.322917,0.0728 0.539517,0.35521 3.091278,4.9552 4.954074,8.93057 0.373536,0.79717 1.677294,3.41654 2.897241,5.82084 7.685624,15.14701 11.40796,22.75831 11.40796,23.32658 0,0.80386 -0.453477,1.28548 -1.210358,1.28548 -0.316444,0 -1.87021,-0.85515 -3.452812,-1.90033 z m 27.470259,1.58283 c -0.59088,-0.59088 -0.32208,-1.70303 1.0478,-4.33518 0.75091,-1.44284 2.24749,-4.40929 3.32573,-6.59211 1.07824,-2.18281 2.482992,-4.98078 3.121672,-6.2177 0.63867,-1.23693 3.33043,-6.57609 5.98168,-11.8648 3.16932,-6.32218 5.03463,-9.75618 5.44575,-10.02556 0.50736,-0.33243 0.75448,-0.35084 1.31026,-0.0976 1.15035,0.52414 18.44106,12.08596 18.98065,12.69183 0.40065,0.44988 0.44853,0.68984 0.23173,1.16128 -0.29908,0.65035 -1.13963,1.22642 -19.91902,13.65144 -7.05776,4.66963 -13.958862,9.26777 -15.335772,10.21808 -2.48668,1.71625 -3.53257,2.06825 -4.19048,1.41034 z M 76.385576,50.27498 c -0.75424,-0.59328 -1.160687,-1.3479 -6.334018,-11.75971 -1.229189,-2.47385 -4.468863,-8.90322 -7.199276,-14.2875 -2.73041,-5.38427 -5.05705,-10.10662 -5.170305,-10.49412 -0.139938,-0.47879 -0.08043,-0.8837 0.185706,-1.26367 0.215392,-0.30751 4.426577,-3.23492 9.358188,-6.50535 6.355567,-4.21473 9.181185,-5.94505 9.703605,-5.94218 1.640005,0.009 1.524165,-1.77787 1.601015,24.69686 0.0439,15.1251 -0.0257,24.44346 -0.18577,24.86443 -0.40364,1.06165 -1.15239,1.32583 -1.959145,0.69124 z m 9.374822,-0.089 c -0.46849,-0.5645 -0.43533,-49.64667 0.0337,-49.94432 1.00926,-0.64042 1.91643,-0.17956 9.4291,4.79014 10.560012,6.98555 10.873442,7.20952 11.054892,7.89965 0.11363,0.43218 -0.24524,1.39594 -1.23156,3.30729 -0.76555,1.48356 -4.858,9.57173 -9.094322,17.9737 -4.23632,8.40197 -7.9096,15.51595 -8.16284,15.80885 -0.53152,0.61477 -1.58455,0.70024 -2.02902,0.16469 z"
     style="fill:#000000;stroke-width:0.264583" />
</svg>
