<?xml version="1.0" encoding="UTF-8" standalone="no"?>
<svg
   xmlns:dc="http://purl.org/dc/elements/1.1/"
   xmlns:cc="http://creativecommons.org/ns#"
   xmlns:rdf="http://www.w3.org/1999/02/22-rdf-syntax-ns#"
   xmlns:svg="http://www.w3.org/2000/svg"
   xmlns="http://www.w3.org/2000/svg"
   id="svg8"
   version="1.1"
   viewBox="0 0 25.324142 38.28521"
   height="38.28521mm"
   width="25.324142mm">
  <defs
     id="defs2">
	
</defs>
  <metadata
     id="metadata5">
    <rdf:RDF>
      <cc:Work
         rdf:about="">
        <dc:format>image/svg+xml</dc:format>
        <dc:type
           rdf:resource="http://purl.org/dc/dcmitype/StillImage" />
        <dc:title></dc:title>
      </cc:Work>
    </rdf:RDF>
  </metadata>
  <g
     transform="translate(-31.045123,-37.445738)"
     id="layer1">
    <g
       transform="matrix(0.26458333,0,0,0.26458333,31.043869,37.445738)"
       id="g234">
		<g
   id="g186">
			<g
   id="g32">
				<g
   id="g30">
					<path
   class="st0"
   d="M 94.1,2.9 C 94.1,2.9 76.3,0 47.8,0 V 0 C 19.4,0 1.6,2.9 1.6,2.9 c 0,0 -9.6,70.8 18.3,113.2 9.5,14.4 27.9,28.5 27.9,28.6 v 0 0 0 0 0 0 c 0.1,0 18.5,-14.2 27.9,-28.6 C 103.8,73.7 94.1,2.9 94.1,2.9 Z"
   id="path28" />

				</g>

			</g>

			<g
   id="g52">
				<path
   d="M 7.8,19.3 C 7.9,19.7 8,19.9 8,19.9 8.6,19 9.8,18.9 10.6,19 10,18.8 8.7,18.7 7.8,19.3 Z"
   id="path34" />

				<g
   id="g46">
					<g
   id="g38">
						<path
   class="st1"
   d="m 10.7,24.4 c 0.1,0.1 0.2,0.2 0.3,0.2 -0.1,0 -0.2,-0.1 -0.3,-0.2 0,0 0,0 0,0 z"
   id="path36" />

					</g>

					<path
   d="m 10.8,22.1 c 0,0 0,0 0,0 0.1,0 0.1,0 0.2,0.1 0,0 0,0 0,0 0,0 0.1,0 0.1,0 0,0 0,-0.1 0,-0.1 -0.4,-0.1 -0.9,-0.3 -1,-0.3 -0.1,0 -0.1,0 -0.2,0 0.3,0.1 0.6,0.2 0.9,0.3 0,0 0,0 0,0 z m -1.1,3.4 c 0,0 -0.1,0 0,0 -0.1,0 -0.1,0 -0.1,0 0,0 0,0 0,0 0,0 0,0 0,0 0,0 0,0 0,0 0,0 0,0 0,0 0,0 0,0 0,0 v 0 c 0,0.1 0,0.1 0,0.1 0.1,-0.1 0.3,-0.1 0.4,-0.2 -0.2,0.1 -0.3,0.1 -0.3,0.1 0,0 0,0 0,0 z m 11.6,15.2 c 0.2,0.2 0.4,0.3 0.5,0.4 0,0 0,0 0.1,0.1 0.1,0.1 0.2,0.2 0.2,0.3 0.1,0.1 0.1,0.1 0.2,0.2 0,0 0,0 0.1,0.1 0.3,0.3 0.5,0.7 0.5,1.1 V 41.7 C 22.6,41.4 22.4,41.2 22.2,41 Z m 10,-9.8 1.1,4.4 c -0.1,0 -0.2,0 -0.3,0 0,0 0,0 0,0 -0.1,0 -0.2,0 -0.3,0 0,0 -0.1,0 -0.1,0 -0.1,0 -0.1,0 -0.2,0 -0.1,0 -0.1,0 -0.2,0 0,0 -0.1,0 -0.1,0 -0.1,0 -0.2,0 -0.3,0 0,0 0,0 -0.1,0 -0.3,0 -0.6,0 -0.9,0 0.2,0 0.4,0 0.6,0.1 0.9,0.1 1.7,0 2.5,-0.1 L 32.4,33.1 Z M 17.9,17.5 c -0.1,0 -0.7,-0.2 -1,-0.2 -0.3,-0.1 -0.7,-0.3 -1.2,-0.3 -0.4,0 -2.2,0.9 -2.2,0.9 0.1,0 1.2,-0.4 1.5,-0.4 0.2,0 0.2,0 0.4,0 0,0.2 0.2,0.3 0.5,0.3 0.3,0 0.5,-0.2 0.6,-0.3 0.4,0.1 0.9,0.1 1.2,0.1 0.1,0 0.2,-0.1 0.2,-0.1 z m 2.1,7.9 c 0,0 0.1,0 0.1,0.1 0,0 0,0 0.1,0 0,0 0.1,0 0.1,0.1 0.1,0 0.1,0.1 0.2,0.1 0,0 0.1,0 0.1,0 0,0 0.1,0.1 0.1,0.1 0,0 0.1,0 0.1,0 0.1,0 0.2,0.1 0.2,0.1 0,0 0,0 0,0 0,0 0,0 0,0 0,0 0,0 0.1,0 v 0 c 0.3,0.2 1.1,0.6 2.1,0.6 -0.9,-0.2 -1.6,-0.6 -1.6,-0.6 -1,-0.6 -1.6,-0.8 -1.9,-0.7 0.2,0.2 0.2,0.2 0.3,0.2 z m -8.8,-0.6 c 0,0 0,0 0,0 -0.1,-0.1 -0.1,-0.1 -0.2,-0.2 -0.2,0.4 -0.4,0.6 -0.6,0.7 0,0 -0.1,0 -0.1,0 0,0 0,0 -0.1,0 0,0 0,0 0,0 0,0 -0.1,0 -0.1,0 0,0 0,0 0,0 0,0 -0.1,0 -0.1,0 0.2,0 0.5,0 0.8,-0.1 0.1,0.1 0.3,-0.1 0.4,-0.4 0,0.1 0,0 0,0 0,0 0,0 0,0 z m 1,-2.3 c 0.3,-0.6 0.5,-1.3 0.5,-2.3 0,0 0,0 0,0 v -1 c 0,0 0,-0.1 0,-0.1 v 0 -0.1 c 0,0 -0.2,-0.5 -0.6,-0.3 0,0 0.2,0.1 0.2,0.5 0,0.4 0,1 0,1 -0.1,0.8 -0.3,1.6 -0.5,2.3 0.1,0.1 0.3,0.3 0.4,0.4 0.1,0.1 0.3,0.4 0.2,0.8 -0.2,0.4 -0.4,1 -0.6,1.1 0,0 -0.1,0.1 -0.1,0.2 0.1,0.2 0.2,0.4 0.2,0.4 0.1,0 0.1,-0.4 0.3,-0.6 0.1,-0.2 0.4,-0.7 0.6,-1.1 0.1,-0.4 -0.1,-0.7 -0.2,-0.8 -0.2,-0.2 -0.3,-0.3 -0.4,-0.4 z M 36.6,29 39,31.4 c -0.1,0.1 -0.2,0.2 -0.3,0.3 0,0 -0.1,0.1 -0.1,0.1 -0.1,0.1 -0.1,0.1 -0.2,0.2 0,0 -0.1,0.1 -0.1,0.1 -0.1,0.1 -0.1,0.1 -0.2,0.2 0,0 -0.1,0.1 -0.1,0.1 -0.1,0.1 -0.1,0.1 -0.2,0.2 0,0 -0.1,0.1 -0.1,0.1 -0.1,0 -0.1,0.1 -0.2,0.1 -0.1,0 -0.1,0.1 -0.2,0.1 0,0 -0.1,0.1 -0.1,0.1 -0.1,0 -0.1,0.1 -0.2,0.1 0,0 -0.1,0.1 -0.1,0.1 -0.1,0 -0.1,0.1 -0.2,0.1 0,0 -0.1,0.1 -0.1,0.1 -0.1,0 -0.1,0.1 -0.2,0.1 0,0 -0.1,0 -0.1,0.1 -0.1,0.1 -0.2,0.1 -0.2,0.2 0,0 0,0 0,0 -0.6,0.4 -1.3,0.7 -2,1 0,0 0,0 0,0 l 0.1,0.2 c 2.2,-0.6 4,-2 5.5,-3.7 L 38,29.6 Z m 8.1,-10.8 c -0.1,0.4 -0.2,0.9 -0.3,1.6 0,0 0,0 0,0.1 0,0.1 0,0.2 -0.1,0.3 0,0.1 0,0.1 0,0.2 0,0.1 0,0.1 0,0.2 0,0.1 0,0.2 -0.1,0.2 0,0 0,0.1 0,0.1 0,0.1 -0.1,0.2 -0.1,0.4 0,0 0,0.1 0,0.1 0,0.1 -0.1,0.2 -0.1,0.4 0,0 0,0 0,0 0,0.1 -0.1,0.3 -0.1,0.4 0,0 0,0 0,0.1 -0.1,0.3 -0.2,0.6 -0.3,0.9 0,0 0,0 0,0 -0.2,0.5 -0.4,1 -0.6,1.5 l 0.6,0.1 c 1.5,-3.8 2,-7.1 2,-7.1 -0.4,0.2 -0.7,0.4 -0.9,0.5 z m -5.3,6.1 3.1,1.4 c -0.1,0.2 -0.2,0.4 -0.3,0.6 -0.6,1.4 -1.4,2.9 -2.4,4.2 0,0 0,0 0,0 l 0.5,0.3 c 1.2,-1.5 2.1,-3.3 2.9,-5 l -3,-1.3 z M 25.2,40.5 c -0.1,0 -0.2,0 -0.3,0 0,0 0,0 0,0 -0.1,0 -0.2,0 -0.2,0 -0.1,0 -0.1,0 -0.2,0 -1.4,3 -0.4,6.8 -0.4,6.8 0.1,0 0.1,0 0.2,0 2,0.5 3.8,1.4 4.1,1.6 0.2,0 0.4,0 0.6,0 0,0 -2,-1.2 -4.3,-1.6 0,0.2 -1.1,-3.8 0.5,-6.8 z m -4.8,8.3 c -0.1,0 -0.2,0 -0.3,0 0,0 0,0 0,0 -0.1,0 -0.2,0 -0.3,0.1 0,0 0,0 0,0 -0.1,0 -0.2,0.1 -0.3,0.1 0,0 0,0 0,0 -0.1,0 -0.2,0.1 -0.3,0.1 0,0 0,0 0,0 -0.1,0 -0.2,0.1 -0.3,0.1 0,0 0,0 0,0 -0.1,0 -0.2,0.1 -0.3,0.1 0,0 0,0 0,0 -0.2,0.1 -0.4,0.2 -0.5,0.3 -0.1,0.2 -0.1,0.3 -0.1,0.5 0,0 1.7,-1.2 3.2,-1.3 2.4,-0.2 3.8,0 6.7,0.2 -3.5,-0.3 -5,-0.5 -7.5,-0.2 z"
   id="path40" />

					<path
   class="st2"
   d="m 16.4,17.5 c -0.1,0.1 -0.3,0.3 -0.6,0.3 -0.3,0 -0.5,-0.1 -0.5,-0.3 -0.1,0 -0.1,0 -0.4,0 -0.2,0 -1.4,0.4 -1.5,0.4 0,0 1.8,-0.9 2.2,-0.9 0.5,0 0.9,0.2 1.2,0.3 0.3,0.1 1,0.2 1,0.2 0.1,0 -0.1,0.1 -0.3,0.1 -0.2,0.1 -0.7,0.1 -1.1,-0.1 z m 6.4,25.3 c 0,-0.3 -0.2,-0.7 -0.5,-1.1 0,0 0,0 -0.1,-0.1 -0.1,-0.1 -0.1,-0.2 -0.2,-0.2 -0.1,-0.1 -0.2,-0.2 -0.2,-0.3 0,0 0,0 -0.1,-0.1 -0.1,-0.1 -0.3,-0.3 -0.5,-0.4 l 1.5,0.4 v 1.8 z m 22,-25.1 c -4.9,3.6 -14.9,3.5 -16.5,3.9 -1.6,0.4 -1.1,1.5 -1.1,1.5 -2.2,5.7 -6.1,2.9 -6.1,2.9 -3,-1.9 -2.5,0.1 -1.3,2.4 -4.7,-0.6 -0.8,-7.1 0.8,-8.4 1.8,-1.3 3.7,-5.1 3.7,-5.1 -0.6,0.6 -2.3,1.8 -6.9,0.9 -2,-0.4 -3.5,0.9 -3.5,0.9 C 5,15.9 7.3,19.8 7.3,19.8 8.3,18.3 11,19 11,19 c 0,0.5 0.3,0.8 0.6,1 -0.1,0.6 -0.2,1.4 -0.5,2.2 C 10.8,22.1 10,21.8 9.7,21.8 9,21.9 9.1,22.9 8.3,23.2 c 0.1,0.2 0.4,0.4 0.8,0.5 -0.3,0.4 -0.3,1 -0.3,1.1 0,0.3 0.2,0.4 0.2,0.5 0,0.2 0,0.4 0,0.4 0.2,-0.1 0.4,-0.2 0.6,-0.2 0.1,0 0.6,0 0.8,-0.1 0.2,-0.1 0.4,-0.3 0.6,-0.7 0.1,0 0.1,0.1 0.1,0.1 0.1,0.1 0.3,0.5 0.3,0.6 0.1,0 0.1,-0.4 0.3,-0.6 0.1,-0.2 0.4,-0.7 0.6,-1.1 0.1,-0.4 -0.1,-0.7 -0.2,-0.8 -0.1,-0.1 -0.3,-0.3 -0.4,-0.4 0.2,-0.7 0.4,-1.4 0.5,-2.3 v 0 c 0,0 0,-0.7 0,-1 0,-0.4 -0.2,-0.5 -0.2,-0.5 0.3,-0.3 0.6,0.3 0.6,0.3 v 1.2 c 0.5,0 0.8,-0.2 0.8,-0.2 0,0 2.9,-0.3 3.3,0.4 0.4,0.7 0.3,2.6 -2.3,7.2 -2.8,5 0.2,9.9 4.3,12 1.4,1 4.3,3.6 3.9,7 0,0 -5.3,1.1 -5.5,3.4 0,0 1.7,-1.2 3.2,-1.3 2.7,-0.2 4.2,-0.1 8.1,0.3 0,0 -2.1,-1.2 -4.4,-1.7 0,0 -1,-3.8 0.4,-6.8 0.1,0 0.1,0 0.2,0 1.7,-0.4 4.8,1.3 4.8,1.3 L 28.7,40 c 3.2,0.5 4.8,4.3 4.8,4.3 -0.1,-3.2 -2.2,-6.4 -4.7,-9.1 0.4,0.1 0.7,0.1 1,0.1 0.9,0.1 1.7,0 2.5,-0.1 l -1.1,-4.4 2.2,4.1 c 2.2,-0.6 4,-2 5.5,-3.7 l -2.3,-2.2 3,1.6 c 1.2,-1.5 2.1,-3.3 2.9,-5 l -3.1,-1.4 3.4,0.5 c 1.5,-3.7 2,-7 2,-7 z"
   id="path42" />

					<path
   d="M 20.6,20 C 18.9,21.3 15,27.8 19.8,28.4 16.1,27.2 19.7,21.3 21.3,20.1 23.1,18.8 25,15 25,15 c -0.2,0.2 -0.6,0.4 -1,0.6 -0.7,1.2 -2.1,3.5 -3.4,4.4 z m 8.8,15.4 c -0.2,0 -0.4,0 -0.6,-0.1 0.1,0.1 0.2,0.3 0.4,0.4 0,0 0,0 0.1,0.1 0.1,0.1 0.2,0.3 0.3,0.4 0,0 0,0 0.1,0.1 0.1,0.1 0.2,0.3 0.3,0.4 0,0 0,0 0,0 0.1,0.1 0.2,0.3 0.3,0.4 0,0 0,0 0,0 0.1,0.1 0.2,0.3 0.3,0.4 0,0 0,0 0,0.1 0.1,0.1 0.2,0.3 0.3,0.4 0,0 0,0 0,0.1 0.1,0.1 0.2,0.3 0.3,0.4 0,0 0,0 0,0 0.1,0.1 0.2,0.3 0.3,0.4 0,0 0,0 0,0 0.1,0.1 0.2,0.3 0.3,0.4 0,0 0,0.1 0,0.1 0.1,0.1 0.2,0.3 0.2,0.4 0,0 0,0.1 0,0.1 0.1,0.1 0.1,0.3 0.2,0.4 0,0 0,0 0,0.1 0.1,0.1 0.1,0.3 0.2,0.4 0,0 0,0.1 0,0.1 0.1,0.1 0.1,0.3 0.2,0.4 0,0 0,0.1 0.1,0.1 0,0.1 0.1,0.3 0.1,0.4 0,0.1 0,0.1 0,0.2 0,0.1 0.1,0.2 0.1,0.3 0,0.1 0,0.1 0.1,0.2 0,0.1 0,0.2 0.1,0.3 0,0 0,0.1 0,0.1 0.5,0.8 0.8,1.4 0.8,1.4 0.2,-2.9 -2.1,-6.3 -4.5,-8.9 z m -0.7,4.7 0.6,1.6 c 0.4,0.2 0.7,0.4 0.7,0.4 l -0.7,-1.8 c -0.1,-0.1 -0.4,-0.2 -0.6,-0.2 z"
   id="path44" />

				</g>

				<g
   id="g50">
					<path
   class="st1"
   d="m 22.1,40.9 c 0.2,0.2 0.4,0.4 0.7,0.7 v -0.5 z"
   id="path48" />

				</g>

			</g>

			<g
   id="g72">
				<path
   d="m 52.5,19.3 c 0.1,0.3 0.2,0.6 0.2,0.6 0.6,-0.9 1.8,-1 2.6,-0.9 -0.6,-0.2 -1.9,-0.3 -2.8,0.3 z"
   id="path54" />

				<g
   id="g66">
					<g
   id="g58">
						<path
   class="st1"
   d="m 55.4,24.4 c 0.1,0.1 0.2,0.2 0.3,0.2 -0.1,0 -0.2,-0.1 -0.3,-0.2 0,0 0,0 0,0 z"
   id="path56" />

					</g>

					<path
   d="m 55.5,22.1 c 0,0 0,0 0,0 0.1,0 0.1,0 0.2,0.1 0,0 0,0 0,0 0,0 0.1,0 0.1,0 0,0 0,-0.1 0,-0.1 -0.4,-0.1 -0.9,-0.3 -1,-0.3 -0.1,0 -0.1,0 -0.2,0 0.3,0.1 0.6,0.2 0.9,0.3 0,0 0,0 0,0 z m -1.1,3.4 c 0,0 -0.1,0 0,0 -0.1,0 -0.1,0 -0.1,0 0,0 0,0 0,0 0,0 0,0 0,0 0,0 0,0 0,0 0,0 0,0 0,0 0,0 0,0 0,0 0,0 0,0 0,0 0,0.1 0,0.1 0,0.1 0.1,-0.1 0.3,-0.1 0.4,-0.2 -0.2,0.1 -0.3,0.1 -0.3,0.1 0,0 0,0 0,0 z M 66,40.7 c 0.2,0.2 0.4,0.3 0.5,0.4 0,0 0,0 0.1,0.1 0.1,0.1 0.2,0.2 0.2,0.3 0.1,0.1 0.1,0.1 0.2,0.2 0,0 0,0 0.1,0.1 0.3,0.3 0.5,0.7 0.5,1.1 V 41.7 C 67.3,41.4 67.1,41.2 66.9,41 Z m 10,-9.8 1.1,4.4 c -0.1,0 -0.2,0 -0.3,0 0,0 0,0 0,0 -0.1,0 -0.2,0 -0.3,0 0,0 -0.1,0 -0.1,0 -0.1,0 -0.1,0 -0.2,0 -0.1,0 -0.1,0 -0.2,0 0,0 -0.1,0 -0.1,0 -0.1,0 -0.2,0 -0.3,0 0,0 0,0 -0.1,0 -0.3,0 -0.6,0 -0.9,0 0.2,0 0.4,0 0.6,0.1 0.9,0.1 1.7,0 2.5,-0.1 L 77.1,33.1 Z M 62.6,17.5 c -0.1,0 -0.7,-0.2 -1,-0.2 -0.3,-0.1 -0.7,-0.3 -1.2,-0.3 -0.4,0 -2.2,0.9 -2.2,0.9 0.1,0 1.2,-0.4 1.5,-0.4 0.2,0 0.2,0 0.4,0 0,0.2 0.2,0.3 0.5,0.3 0.3,0 0.5,-0.2 0.6,-0.3 0.4,0.1 0.9,0.1 1.2,0.1 0.1,0 0.2,-0.1 0.2,-0.1 z m 2.1,7.9 c 0,0 0.1,0 0.1,0.1 0,0 0,0 0.1,0 0,0 0.1,0 0.1,0.1 0.1,0 0.1,0.1 0.2,0.1 0,0 0.1,0 0.1,0 0,0 0.1,0.1 0.1,0.1 0,0 0.1,0 0.1,0 0.1,0 0.2,0.1 0.2,0.1 0,0 0,0 0,0 v 0 c 0,0 0,0 0.1,0 0,0 0,0 0,0 0.3,0.2 1.1,0.6 2.1,0.6 -0.9,-0.2 -1.6,-0.6 -1.6,-0.6 -1,-0.6 -1.6,-0.8 -1.9,-0.7 0.2,0.2 0.2,0.2 0.3,0.2 z m -8.8,-0.6 c 0,0 0,0 0,0 -0.1,-0.1 -0.1,-0.1 -0.2,-0.2 -0.2,0.4 -0.4,0.6 -0.6,0.7 0,0 -0.1,0 -0.1,0 0,0 0,0 -0.1,0 0,0 0,0 0,0 0,0 -0.1,0 -0.1,0 0,0 0,0 0,0 0,0 -0.1,0 -0.1,0 0.2,0 0.5,0 0.8,-0.1 0.1,0.1 0.3,-0.1 0.4,-0.4 0,0.1 0,0 0,0 0,0 0,0 0,0 z m 1,-2.3 c 0.3,-0.6 0.5,-1.3 0.5,-2.3 0,0 0,0 0,0 v -1 c 0,0 0,-0.1 0,-0.1 v 0 -0.1 c 0,0 -0.2,-0.5 -0.6,-0.3 0,0 0.2,0.1 0.2,0.5 0,0.4 0,1 0,1 -0.1,0.8 -0.3,1.6 -0.5,2.3 0.1,0.1 0.3,0.3 0.4,0.4 0.1,0.1 0.3,0.4 0.2,0.8 -0.2,0.4 -0.4,1 -0.6,1.1 0,0 -0.1,0.1 -0.1,0.2 0.1,0.2 0.2,0.4 0.2,0.4 0.1,0 0.1,-0.4 0.3,-0.6 0.1,-0.2 0.4,-0.7 0.6,-1.1 C 57.6,23.3 57.4,23 57.3,22.9 57.1,22.7 57,22.6 56.9,22.5 Z m 24.4,6.5 2.4,2.4 c -0.1,0.1 -0.2,0.2 -0.3,0.3 0,0 -0.1,0.1 -0.1,0.1 -0.1,0.1 -0.1,0.1 -0.2,0.2 0,0 -0.1,0.1 -0.1,0.1 -0.1,0.1 -0.1,0.1 -0.2,0.2 0,0 -0.1,0.1 -0.1,0.1 -0.1,0.1 -0.1,0.1 -0.2,0.2 0,0 -0.1,0.1 -0.1,0.1 -0.1,0 -0.1,0.1 -0.2,0.1 -0.1,0 -0.1,0.1 -0.2,0.1 0,0 -0.1,0.1 -0.1,0.1 -0.1,0 -0.1,0.1 -0.2,0.1 0,0 -0.1,0.1 -0.1,0.1 -0.1,0 -0.1,0.1 -0.2,0.1 0,0 -0.1,0.1 -0.1,0.1 -0.1,0 -0.1,0.1 -0.2,0.1 0,0 -0.1,0 -0.1,0.1 -0.1,0.1 -0.2,0.1 -0.2,0.2 0,0 0,0 0,0 -0.6,0.4 -1.3,0.7 -2,1 0,0 0,0 0,0 l 0.1,0.2 c 2.2,-0.6 4,-2 5.5,-3.7 l -1.7,-1.7 z m 8.1,-10.8 c -0.1,0.4 -0.2,0.9 -0.3,1.6 0,0 0,0 0,0.1 0,0.1 0,0.2 -0.1,0.3 0,0.1 0,0.1 0,0.2 0,0.1 0,0.1 0,0.2 0,0.1 0,0.2 -0.1,0.2 0,0 0,0.1 0,0.1 0,0.1 -0.1,0.2 -0.1,0.4 0,0 0,0.1 0,0.1 0,0.1 -0.1,0.2 -0.1,0.4 0,0 0,0 0,0 0,0.1 -0.1,0.3 -0.1,0.4 0,0 0,0 0,0.1 -0.1,0.3 -0.2,0.6 -0.3,0.9 0,0 0,0 0,0 -0.2,0.5 -0.4,1 -0.6,1.5 l 0.6,0.1 c 1.5,-3.8 2,-7.1 2,-7.1 -0.4,0.2 -0.7,0.4 -0.9,0.5 z m -5.3,6.1 3.1,1.4 c -0.1,0.2 -0.2,0.4 -0.3,0.6 -0.6,1.4 -1.4,2.9 -2.4,4.2 0,0 0,0 0,0 l 0.5,0.3 c 1.2,-1.5 2.1,-3.3 2.9,-5 l -3,-1.3 z M 69.9,40.5 c -0.1,0 -0.2,0 -0.3,0 0,0 0,0 0,0 -0.1,0 -0.2,0 -0.2,0 -0.1,0 -0.1,0 -0.2,0 -1.4,3 -0.4,6.8 -0.4,6.8 0.1,0 0.1,0 0.2,0 2,0.5 3.8,1.4 4.1,1.6 0.2,0 0.4,0 0.6,0 0,0 -2,-1.2 -4.3,-1.6 0,0.2 -1.1,-3.8 0.5,-6.8 z m -4.8,8.3 c -0.1,0 -0.2,0 -0.3,0 0,0 0,0 0,0 -0.1,0 -0.2,0 -0.3,0.1 0,0 0,0 0,0 -0.1,0 -0.2,0.1 -0.3,0.1 0,0 0,0 0,0 -0.1,0 -0.2,0.1 -0.3,0.1 0,0 0,0 0,0 -0.1,0 -0.2,0.1 -0.3,0.1 0,0 0,0 0,0 -0.1,0 -0.2,0.1 -0.3,0.1 0,0 0,0 0,0 -0.2,0.1 -0.4,0.2 -0.5,0.3 -0.1,0.2 -0.1,0.3 -0.1,0.5 0,0 1.7,-1.2 3.2,-1.3 2.4,-0.2 3.8,0 6.7,0.2 -3.5,-0.3 -5,-0.5 -7.5,-0.2 z"
   id="path60" />

					<path
   class="st2"
   d="m 61.1,17.5 c -0.1,0.1 -0.3,0.3 -0.6,0.3 -0.3,0 -0.5,-0.1 -0.5,-0.3 -0.1,0 -0.1,0 -0.4,0 -0.2,0 -1.4,0.4 -1.5,0.4 0,0 1.8,-0.9 2.2,-0.9 0.5,0 0.9,0.2 1.2,0.3 0.3,0.1 1,0.2 1,0.2 0.1,0 -0.1,0.1 -0.3,0.1 -0.2,0.1 -0.7,0.1 -1.1,-0.1 z m 6.4,25.3 c 0,-0.3 -0.2,-0.7 -0.5,-1.1 0,0 0,0 -0.1,-0.1 -0.1,-0.1 -0.1,-0.2 -0.2,-0.2 -0.1,-0.1 -0.2,-0.2 -0.2,-0.3 0,0 0,0 -0.1,-0.1 -0.1,-0.1 -0.3,-0.3 -0.5,-0.4 l 1.5,0.4 v 1.8 z m 22,-25.1 c -4.9,3.6 -14.9,3.5 -16.5,3.9 -1.6,0.4 -1.1,1.5 -1.1,1.5 -2.2,5.8 -6.2,2.9 -6.2,2.9 -3,-1.9 -2.5,0.1 -1.3,2.4 -4.7,-0.6 -0.8,-7.1 0.8,-8.4 1.9,-1.3 3.8,-5 3.8,-5 -0.6,0.6 -2.3,1.8 -6.9,0.9 -2,-0.4 -3.5,0.9 -3.5,0.9 -8.9,-0.8 -6.6,3.1 -6.6,3.1 0.9,-1.5 3.6,-0.8 3.6,-0.8 0,0.5 0.3,0.8 0.6,1 -0.1,0.6 -0.2,1.4 -0.5,2.2 -0.3,-0.1 -1.1,-0.4 -1.4,-0.4 -0.7,0.1 -0.6,1.1 -1.4,1.4 0.1,0.2 0.4,0.4 0.8,0.5 -0.3,0.4 -0.3,1 -0.3,1.1 0,0.3 0.2,0.4 0.2,0.5 0,0.2 0,0.4 0,0.4 0.2,-0.1 0.4,-0.2 0.6,-0.2 0.1,0 0.6,0 0.8,-0.1 0.2,-0.1 0.4,-0.3 0.6,-0.7 0.1,0 0.1,0.1 0.1,0.1 0.1,0.1 0.3,0.5 0.3,0.6 0.1,0 0.1,-0.4 0.3,-0.6 0.1,-0.2 0.4,-0.7 0.6,-1.1 0.1,-0.4 -0.1,-0.7 -0.2,-0.8 -0.1,-0.1 -0.3,-0.3 -0.4,-0.4 0.2,-0.7 0.4,-1.4 0.5,-2.3 v 0 c 0,0 0,-0.7 0,-1 0,-0.4 -0.2,-0.5 -0.2,-0.5 0.3,-0.3 0.6,0.3 0.6,0.3 v 1.2 c 0.5,0 0.8,-0.2 0.8,-0.2 0,0 2.9,-0.3 3.3,0.4 0.4,0.7 0.3,2.6 -2.3,7.2 -2.8,5 0.2,9.9 4.3,12 1.4,1 4.3,3.6 3.9,7 0,0 -5.3,1.1 -5.5,3.4 0,0 1.7,-1.2 3.2,-1.3 2.7,-0.2 4.2,-0.1 8.1,0.3 0,0 -2.1,-1.2 -4.4,-1.7 0,0 -1,-3.8 0.4,-6.8 0.1,0 0.1,0 0.2,0 1.7,-0.4 4.8,1.3 4.8,1.3 l -0.7,-1.8 c 3.2,0.5 4.8,4.3 4.8,4.3 -0.1,-3.2 -2.2,-6.4 -4.7,-9.1 0.4,0.1 0.7,0.1 1,0.1 0.9,0.1 1.7,0 2.5,-0.1 L 76,30.9 78.2,35 c 2.2,-0.6 4,-2 5.5,-3.7 l -2.4,-2.3 3,1.6 c 1.2,-1.5 2.1,-3.3 2.9,-5 l -3.1,-1.4 3.4,0.5 c 1.5,-3.7 2,-7 2,-7 z"
   id="path62" />

					<path
   d="m 65.3,20 c -1.7,1.3 -5.6,7.8 -0.8,8.4 -3.7,-1.2 -0.1,-7.1 1.5,-8.3 1.8,-1.3 3.7,-5.1 3.7,-5.1 -0.2,0.2 -0.6,0.4 -1,0.6 -0.7,1.2 -2.1,3.5 -3.4,4.4 z m 8.8,15.4 c -0.2,0 -0.4,0 -0.6,-0.1 0.1,0.1 0.2,0.3 0.4,0.4 0,0 0,0 0.1,0.1 0.1,0.1 0.2,0.3 0.3,0.4 0,0 0,0 0.1,0.1 0.1,0.1 0.2,0.3 0.3,0.4 0,0 0,0 0,0 0.1,0.1 0.2,0.3 0.3,0.4 0,0 0,0 0,0 0.1,0.1 0.2,0.3 0.3,0.4 0,0 0,0 0,0.1 0.1,0.1 0.2,0.3 0.3,0.4 0,0 0,0 0,0.1 0.1,0.1 0.2,0.3 0.3,0.4 0,0 0,0 0,0 0.1,0.1 0.2,0.3 0.3,0.4 0,0 0,0 0,0 0.1,0.1 0.2,0.3 0.3,0.4 0,0 0,0.1 0,0.1 0.1,0.1 0.2,0.3 0.2,0.4 0,0 0,0.1 0,0.1 0.1,0.1 0.1,0.3 0.2,0.4 0,0 0,0 0,0.1 0.1,0.1 0.1,0.3 0.2,0.4 0,0 0,0.1 0,0.1 0.1,0.1 0.1,0.3 0.2,0.4 0,0 0,0.1 0.1,0.1 0,0.1 0.1,0.3 0.1,0.4 0,0.1 0,0.1 0,0.2 0,0.1 0.1,0.2 0.1,0.3 0,0.1 0,0.1 0.1,0.2 0,0.1 0,0.2 0.1,0.3 0,0 0,0.1 0,0.1 0.5,0.8 0.8,1.4 0.8,1.4 0.2,-2.9 -2.1,-6.3 -4.5,-8.9 z m -0.7,4.7 0.6,1.6 c 0.4,0.2 0.7,0.4 0.7,0.4 L 74,40.3 c -0.1,-0.1 -0.4,-0.2 -0.6,-0.2 z"
   id="path64" />

				</g>

				<g
   id="g70">
					<path
   class="st1"
   d="m 66.8,40.9 c 0.2,0.2 0.4,0.4 0.7,0.7 v -0.5 z"
   id="path68" />

				</g>

			</g>

			<g
   id="g92">
				<path
   d="m 26.6,92 c 0.1,0.4 0.3,0.7 0.3,0.7 0.7,-1.1 2.2,-1.3 3.3,-1.2 -0.8,-0.1 -2.5,-0.3 -3.6,0.5 z"
   id="path74" />

				<g
   id="g86">
					<g
   id="g78">
						<path
   class="st1"
   d="m 30.2,98.5 c 0.1,0.1 0.2,0.2 0.4,0.2 -0.1,0 -0.3,-0.1 -0.4,-0.2 0,0 0,0 0,0 z"
   id="path76" />

					</g>

					<path
   d="m 30.3,95.5 c 0.1,0 0.1,0 0,0 0.1,0 0.2,0.1 0.2,0.1 0,0 0,0 0,0 0,0 0.1,0 0.1,0 0,-0.1 0,-0.1 0,-0.1 -0.5,-0.1 -1.1,-0.4 -1.3,-0.3 -0.1,0 -0.1,0 -0.2,0.1 0.4,0 0.9,0.1 1.2,0.2 0,0 0,0 0,0 z M 29,99.8 c -0.1,0 -0.1,0 0,0 -0.1,0 -0.1,0 -0.2,0 0,0 0,0 0,0 0,0 0,0 0,0 0,0 0,0 0,0 0,0 0,0 0,0 0,0 0,0 -0.1,0 0,0 0,0 0,0 0,0.1 0,0.1 0,0.2 0.2,-0.1 0.3,-0.2 0.5,-0.2 -0.2,0 -0.2,0 -0.2,0 0,0 0,0 0,0 z m 14.5,19.1 c 0.2,0.2 0.4,0.4 0.6,0.6 0,0 0,0 0.1,0.1 0.1,0.1 0.2,0.2 0.3,0.3 0.1,0.1 0.2,0.2 0.2,0.3 0,0 0,0.1 0.1,0.1 0.3,0.4 0.6,0.9 0.6,1.3 V 120 c -0.3,-0.4 -0.7,-0.7 -0.9,-0.9 z m 12.5,-12.3 1.4,5.5 c -0.1,0 -0.2,0 -0.4,0.1 0,0 0,0 0,0 -0.1,0 -0.2,0 -0.3,0 0,0 -0.1,0 -0.1,0 -0.1,0 -0.2,0 -0.3,0 -0.1,0 -0.1,0 -0.2,0 -0.1,0 -0.1,0 -0.2,0 -0.1,0 -0.2,0 -0.3,0 0,0 0,0 -0.1,0 -0.4,0 -0.8,0 -1.2,0 0.2,0 0.5,0.1 0.7,0.1 1.1,0.1 2.2,0 3.2,-0.1 l -0.7,-2.7 z M 39.2,89.8 c -0.1,0 -0.9,-0.2 -1.3,-0.3 -0.4,-0.1 -0.9,-0.3 -1.5,-0.3 -0.5,0 -2.7,1.2 -2.7,1.2 0.1,0 1.5,-0.5 1.8,-0.5 0.3,0 0.3,0 0.4,0 0,0.3 0.3,0.4 0.7,0.4 0.4,0 0.7,-0.3 0.7,-0.4 0.5,0.2 1.2,0.2 1.5,0.1 0.3,-0.1 0.5,-0.2 0.4,-0.2 z m 2.7,9.9 c 0.1,0 0.1,0 0.2,0.1 0,0 0,0 0.1,0 0,0 0.1,0 0.1,0.1 0.1,0 0.1,0.1 0.2,0.1 0,0 0.1,0 0.1,0.1 0.1,0 0.1,0.1 0.2,0.1 0,0 0.1,0 0.1,0.1 0.1,0.1 0.2,0.1 0.3,0.2 0,0 0,0 0.1,0 0,0 0,0 0,0 0,0 0,0 0.1,0 0,0 0,0 0,0 0.3,0.2 1.4,0.8 2.7,0.8 -1.2,-0.2 -2,-0.8 -2,-0.8 -1.3,-0.8 -2,-1 -2.4,-0.9 0,0 0.1,0.1 0.2,0.1 0,0 0,0 0,0 z M 30.8,98.9 c 0,0 0,0 0,0 -0.1,-0.1 -0.2,-0.2 -0.2,-0.2 -0.2,0.5 -0.5,0.8 -0.7,0.9 0,0 -0.1,0 -0.1,0.1 0,0 -0.1,0 -0.1,0 0,0 0,0 0,0 0,0 -0.1,0 -0.1,0 0,0 0,0 0,0 0,0 -0.1,0 -0.1,0 0.2,0 0.7,0 1,-0.2 0,0 0.2,-0.2 0.3,-0.6 0.1,0.1 0.1,0.1 0,0 0.1,0.1 0,0 0,0 z M 32.1,96 c 0.3,-0.7 0.6,-1.7 0.6,-2.9 0,0 0,0 0,0 v -1.2 c 0,0 0,-0.1 0,-0.1 v 0 -0.1 c 0,0 -0.3,-0.7 -0.7,-0.3 0,0 0.2,0.1 0.3,0.6 0,0.5 0,1.3 0,1.3 -0.1,1 -0.3,2 -0.6,2.8 0.1,0.2 0.4,0.4 0.5,0.5 0.1,0.1 0.4,0.5 0.2,1 -0.2,0.5 -0.5,1.2 -0.7,1.4 0,0.1 -0.1,0.1 -0.1,0.2 0.1,0.2 0.2,0.4 0.3,0.5 0.1,0 0.1,-0.5 0.3,-0.7 0.2,-0.2 0.5,-0.9 0.7,-1.4 0.2,-0.5 -0.1,-0.9 -0.2,-1 -0.3,-0.3 -0.5,-0.4 -0.6,-0.6 z m 30.7,8.3 3,3 c -0.1,0.1 -0.2,0.3 -0.3,0.4 0,0 -0.1,0.1 -0.1,0.1 -0.1,0.1 -0.2,0.2 -0.3,0.3 0,0 -0.1,0.1 -0.1,0.1 -0.1,0.1 -0.1,0.1 -0.2,0.2 -0.1,0 -0.1,0.1 -0.2,0.1 -0.1,0.1 -0.1,0.1 -0.2,0.2 -0.1,0.1 -0.1,0.1 -0.2,0.2 -0.1,0.1 -0.1,0.1 -0.2,0.2 -0.1,0.1 -0.1,0.1 -0.2,0.2 -0.1,0.1 -0.1,0.1 -0.2,0.1 -0.1,0.1 -0.1,0.1 -0.2,0.2 -0.1,0 -0.1,0.1 -0.2,0.1 -0.1,0.1 -0.2,0.1 -0.2,0.2 0,0 -0.1,0.1 -0.1,0.1 -0.1,0.1 -0.2,0.1 -0.3,0.2 0,0 -0.1,0 -0.1,0.1 -0.1,0.1 -0.2,0.1 -0.3,0.2 0,0 0,0 -0.1,0 -0.8,0.5 -1.7,0.9 -2.6,1.2 0,0 0,0 0,0 l 0.2,0.3 c 2.8,-0.8 5.1,-2.5 6.9,-4.6 l -2.2,-2.2 z M 72.9,90.7 c -0.1,0.5 -0.2,1.1 -0.4,2 0,0 0,0.1 0,0.1 0,0.1 -0.1,0.3 -0.1,0.4 0,0.1 0,0.2 -0.1,0.2 0,0.1 0,0.1 0,0.2 0,0.1 -0.1,0.2 -0.1,0.3 0,0 0,0.1 0,0.1 0,0.1 -0.1,0.3 -0.1,0.5 0,0 0,0.1 0,0.1 0,0.2 -0.1,0.3 -0.1,0.5 0,0 0,0 0,0.1 -0.1,0.2 -0.1,0.4 -0.2,0.5 0,0 0,0.1 0,0.1 -0.1,0.4 -0.2,0.8 -0.4,1.2 0,0 0,0 0,0 -0.2,0.6 -0.4,1.3 -0.7,1.9 l 0.8,0.1 c 1.9,-4.7 2.5,-8.9 2.5,-8.9 -0.5,0.2 -0.8,0.4 -1.1,0.6 z m -6.7,7.6 3.9,1.7 c -0.1,0.3 -0.2,0.5 -0.3,0.8 -0.8,1.8 -1.8,3.6 -3,5.2 0,0 0,0 0,0 l 0.6,0.3 c 1.5,-1.9 2.7,-4.1 3.6,-6.3 l -3.7,-1.7 z m -17.8,20.4 c -0.1,0 -0.2,0 -0.3,0 0,0 0,0 -0.1,0 -0.1,0 -0.2,0 -0.3,0 -0.1,0 -0.1,0 -0.2,0 -1.8,3.7 -0.5,8.5 -0.5,8.5 0.1,0 0.2,0 0.3,0.1 2.5,0.6 4.8,1.8 5.2,2 0.2,0 0.5,0 0.7,0 0,0 -2.5,-1.5 -5.4,-2.1 0,0.2 -1.4,-4.8 0.6,-8.5 z m -6,10.3 c -0.1,0 -0.3,0 -0.4,0.1 0,0 0,0 0,0 -0.1,0 -0.2,0 -0.4,0.1 0,0 0,0 0,0 -0.1,0 -0.2,0.1 -0.4,0.1 0,0 0,0 0,0 -0.1,0 -0.2,0.1 -0.4,0.1 0,0 0,0 0,0 -0.1,0 -0.2,0.1 -0.3,0.1 0,0 0,0 0,0 -0.1,0 -0.2,0.1 -0.3,0.2 0,0 0,0 0,0 -0.2,0.1 -0.5,0.2 -0.7,0.3 -0.1,0.2 -0.1,0.4 -0.2,0.7 0,0 2.2,-1.5 4,-1.6 3,-0.3 4.8,0 8.4,0.2 -4.3,-0.4 -6.1,-0.6 -9.3,-0.3 z"
   id="path80" />

					<path
   class="st2"
   d="m 37.4,89.8 c -0.1,0.1 -0.3,0.4 -0.7,0.4 -0.4,0 -0.7,-0.1 -0.7,-0.4 -0.2,0 -0.1,0 -0.4,0 -0.3,0.1 -1.7,0.6 -1.8,0.5 0,0 2.2,-1.2 2.7,-1.2 0.6,0 1.1,0.2 1.5,0.3 0.4,0.1 1.2,0.3 1.3,0.3 0.1,0 -0.1,0.1 -0.3,0.2 -0.5,0.1 -1.2,0.1 -1.6,-0.1 z m 8,31.8 c 0,-0.4 -0.3,-0.9 -0.6,-1.3 0,0 0,-0.1 -0.1,-0.1 -0.1,-0.1 -0.2,-0.2 -0.2,-0.3 -0.1,-0.1 -0.2,-0.2 -0.3,-0.3 0,0 0,-0.1 -0.1,-0.1 -0.2,-0.2 -0.4,-0.4 -0.6,-0.6 l 1.9,0.5 z M 73,90 c -6.1,4.6 -18.7,4.3 -20.7,4.9 -2,0.5 -1.4,1.9 -1.4,1.9 -2.8,7.2 -7.7,3.7 -7.7,3.7 -3.8,-2.3 -3.1,0.1 -1.6,3.1 -5.9,-0.7 -1,-8.9 1.1,-10.5 2.2,-1.7 4.7,-6.4 4.7,-6.4 -0.7,0.8 -2.8,2.3 -8.6,1.1 -2.6,-0.5 -4.4,1.1 -4.4,1.1 -11.2,-1 -8.3,3.9 -8.3,3.9 1.2,-1.9 4.5,-1 4.5,-1 0,0.7 0.4,1 0.8,1.2 -0.1,0.8 -0.3,1.8 -0.6,2.7 -0.4,-0.1 -1.4,-0.5 -1.7,-0.4 -0.9,0.1 -0.8,1.4 -1.7,1.8 0.1,0.2 0.5,0.5 1,0.6 C 28,98.2 28,99 28,99.1 c 0,0.4 0.3,0.5 0.3,0.6 0,0.2 0,0.5 0,0.5 0.3,-0.1 0.5,-0.3 0.7,-0.3 0.2,0 0.7,0 1,-0.2 0.2,-0.1 0.5,-0.4 0.7,-0.9 0.1,0 0.1,0.1 0.2,0.1 0.2,0.2 0.4,0.7 0.4,0.7 0.1,0 0.1,-0.5 0.3,-0.7 0.2,-0.2 0.5,-0.9 0.7,-1.4 0.2,-0.5 -0.1,-0.9 -0.2,-1 -0.1,-0.1 -0.4,-0.3 -0.5,-0.5 0.3,-0.8 0.5,-1.8 0.6,-2.8 v 0 c 0,0 0.1,-0.8 0,-1.3 0,-0.5 -0.3,-0.6 -0.3,-0.6 0.4,-0.3 0.7,0.3 0.7,0.3 v 1.5 c 0.6,-0.1 1,-0.2 1,-0.2 0,0 3.6,-0.4 4.1,0.5 0.6,0.9 0.3,3.2 -2.9,9 -3.5,6.3 0.2,12.4 5.4,15.1 1.7,1.3 5.3,4.5 4.9,8.8 0,0 -6.6,1.3 -6.9,4.3 0,0 2.2,-1.5 4,-1.6 3.4,-0.3 5.2,-0.1 10.1,0.4 0,0 -2.7,-1.5 -5.5,-2.1 0,0 -1.3,-4.8 0.5,-8.5 0.1,0 0.1,0 0.2,0 2.2,-0.5 6,1.7 6,1.7 l -0.9,-2.3 c 4,0.6 6,5.4 6,5.4 -0.1,-4 -2.8,-8 -5.9,-11.4 0.4,0.1 0.9,0.1 1.3,0.2 1.1,0.1 2.2,0 3.2,-0.1 l -1.4,-5.5 2.8,5.2 c 2.8,-0.8 5.1,-2.5 6.9,-4.6 l -3,-3 3.7,2 c 1.5,-1.9 2.7,-4.1 3.6,-6.3 l -3.9,-1.7 4.3,0.7 C 72.4,94.2 73,90 73,90 Z"
   id="path82" />

					<path
   d="m 42.7,92.9 c -2.1,1.6 -7,9.8 -1.1,10.5 -4.7,-1.5 -0.1,-8.9 1.9,-10.4 2.2,-1.7 4.7,-6.4 4.7,-6.4 -0.2,0.2 -0.8,0.5 -1.3,0.8 -0.9,1.5 -2.6,4.3 -4.2,5.5 z m 11,19.3 c -0.2,0 -0.5,-0.1 -0.7,-0.1 0.2,0.2 0.3,0.3 0.5,0.5 0,0 0,0.1 0.1,0.1 0.1,0.2 0.3,0.3 0.4,0.5 0,0 0,0.1 0.1,0.1 0.1,0.2 0.3,0.3 0.4,0.5 0,0 0,0 0,0.1 0.1,0.2 0.3,0.4 0.4,0.5 0,0 0,0 0,0 0.1,0.2 0.3,0.4 0.4,0.6 0,0 0,0 0.1,0.1 0.1,0.2 0.3,0.4 0.4,0.5 0,0 0,0.1 0.1,0.1 0.1,0.2 0.3,0.4 0.4,0.6 0,0 0,0 0,0 0.1,0.2 0.2,0.4 0.4,0.6 0,0 0,0 0,0 0.1,0.2 0.2,0.4 0.3,0.6 0,0 0,0.1 0.1,0.1 0.1,0.2 0.2,0.4 0.3,0.5 0,0 0,0.1 0.1,0.1 0.1,0.2 0.2,0.4 0.3,0.5 0,0 0,0.1 0,0.1 0.1,0.2 0.1,0.3 0.2,0.5 0,0 0,0.1 0.1,0.1 0.1,0.2 0.1,0.3 0.2,0.5 0,0.1 0,0.1 0.1,0.2 0.1,0.2 0.1,0.3 0.2,0.5 0,0.1 0,0.1 0.1,0.2 0,0.1 0.1,0.3 0.1,0.4 0,0.1 0,0.2 0.1,0.3 0,0.1 0.1,0.2 0.1,0.4 0,0.1 0,0.1 0,0.2 0.7,1 1,1.8 1,1.8 -0.5,-4.1 -3.3,-8.4 -6.3,-11.7 z m -0.9,6 0.8,2 c 0.6,0.3 0.9,0.5 0.9,0.5 l -0.8,-2.3 c -0.3,-0.1 -0.6,-0.2 -0.9,-0.2 z"
   id="path84" />

				</g>

				<g
   id="g90">
					<path
   class="st1"
   d="m 44.6,119.2 c 0.2,0.2 0.5,0.5 0.8,0.8 v -0.6 z"
   id="path88" />

				</g>

			</g>

			<linearGradient
   id="SVGID_1_"
   gradientUnits="userSpaceOnUse"
   x1="21.002501"
   y1="76.418098"
   x2="46.514702"
   y2="76.418098">
				<stop
   offset="0"
   style="stop-color:#FFFFFF"
   id="stop94" />

				<stop
   offset="0.1336"
   style="stop-color:#E7E7F1"
   id="stop96" />

				<stop
   offset="0.3889"
   style="stop-color:#BCBBD8"
   id="stop98" />

				<stop
   offset="0.7365"
   style="stop-color:#8484B5"
   id="stop100" />

				<stop
   offset="0.9382"
   style="stop-color:#6768A3"
   id="stop102" />

			</linearGradient>

			<path
   style="fill:url(#SVGID_1_)"
   class="st3"
   d="m 34.8,73.2 c -0.1,0 -0.2,0 -0.4,-0.1 -0.2,0 -0.4,0 -0.5,-0.1 -5.1,-0.5 -9.7,1.2 -12.1,2.3 L 21,77.2 c 0,0 14.5,-9.5 25.5,2.7 0,0 -4,-5.5 -11.7,-6.7 z"
   id="path105" />

			<linearGradient
   id="SVGID_2_"
   gradientUnits="userSpaceOnUse"
   x1="58.897999"
   y1="75.231598"
   x2="72.583099"
   y2="75.231598">
				<stop
   offset="9.550560e-02"
   style="stop-color:#6768A3"
   id="stop107" />

				<stop
   offset="0.3182"
   style="stop-color:#8080B3"
   id="stop109" />

				<stop
   offset="0.8067"
   style="stop-color:#CFCEE3"
   id="stop111" />

				<stop
   offset="1"
   style="stop-color:#FFFFFF"
   id="stop113" />

			</linearGradient>

			<path
   style="fill:url(#SVGID_2_)"
   class="st4"
   d="m 72,75.6 c -2.5,-1.1 -7.5,-2.9 -13.1,-2.1 7.5,-0.4 13.7,3.7 13.7,3.7 z"
   id="path116" />

			<linearGradient
   id="SVGID_3_"
   gradientUnits="userSpaceOnUse"
   x1="20.052799"
   y1="74.408401"
   x2="37.5509"
   y2="74.408401">
				<stop
   offset="0"
   style="stop-color:#FFFFFF"
   id="stop118" />

				<stop
   offset="0.1554"
   style="stop-color:#E7E7F1"
   id="stop120" />

				<stop
   offset="0.4522"
   style="stop-color:#BCBCD8"
   id="stop122" />

				<stop
   offset="0.8566"
   style="stop-color:#8484B5"
   id="stop124" />

				<stop
   offset="0.9382"
   style="stop-color:#7A7AAF"
   id="stop126" />

			</linearGradient>

			<path
   style="fill:url(#SVGID_3_)"
   class="st5"
   d="M 20.8,74.4 20,76.2 c 0,0 8.6,-5 17.5,-2.5 -7,-2.3 -14,-0.3 -16.7,0.7 z"
   id="path129" />

			<linearGradient
   id="SVGID_4_"
   gradientUnits="userSpaceOnUse"
   x1="53.709099"
   y1="74.609001"
   x2="73.564003"
   y2="74.609001">
				<stop
   offset="9.550560e-02"
   style="stop-color:#7A7AAF"
   id="stop131" />

				<stop
   offset="0.3588"
   style="stop-color:#9594C0"
   id="stop133" />

				<stop
   offset="0.9369"
   style="stop-color:#EEEEF5"
   id="stop135" />

				<stop
   offset="1"
   style="stop-color:#FFFFFF"
   id="stop137" />

			</linearGradient>

			<path
   style="fill:url(#SVGID_4_)"
   class="st6"
   d="m 53.7,74.8 c 9.9,-4.1 19.9,1.6 19.9,1.6 L 72.9,74.8 C 70.2,73.7 62,71 53.7,74.8 Z"
   id="path140" />

			<g
   id="g148">
				<g
   id="g146">
					<g
   id="g144">
						<path
   class="st7"
   d="M 46.5,79.8 C 37.3,69.7 25.7,74.6 22.1,76.6 l -0.4,0.9 0.7,0.4 c 0,0 12.2,-8.7 22.7,2.1 1.6,1.6 1.8,1.2 3,0 11.9,-11.3 22.3,-2.2 22.6,-2.3 0.4,-0.1 1,-0.4 1,-0.4 l -0.3,-0.8 c -3.6,-2 -15.2,-7.1 -24.6,2.9 z m 0,0 m 0.3,-0.4"
   id="path142" />

					</g>

				</g>

			</g>

			<linearGradient
   id="SVGID_5_"
   gradientUnits="userSpaceOnUse"
   x1="19.646999"
   y1="66.971901"
   x2="47.167099"
   y2="66.971901">
				<stop
   offset="0.732"
   style="stop-color:#FFFFFF"
   id="stop150" />

				<stop
   offset="1"
   style="stop-color:#8E8EBC"
   id="stop152" />

			</linearGradient>

			<path
   style="fill:url(#SVGID_5_)"
   class="st8"
   d="m 19.6,75.2 c 0,0 15.4,-7.7 26.9,4.8 l 0.6,-22.6 c 0,0 -10.9,-8 -20.5,0.4 z"
   id="path155" />

			<linearGradient
   id="SVGID_6_"
   gradientUnits="userSpaceOnUse"
   x1="42.9496"
   y1="66.875999"
   x2="55.096699"
   y2="66.875999">
				<stop
   offset="9.550560e-02"
   style="stop-color:#7A7AAF"
   id="stop157" />

				<stop
   offset="0.3588"
   style="stop-color:#9594C0"
   id="stop159" />

				<stop
   offset="0.9369"
   style="stop-color:#EEEEF5"
   id="stop161" />

				<stop
   offset="1"
   style="stop-color:#FFFFFF"
   id="stop163" />

			</linearGradient>

			<path
   style="fill:url(#SVGID_6_)"
   class="st9"
   d="m 73.9,75.2 c 0,0 -15.5,-7.8 -27.3,4.8 l 0.6,-22.6 c 0,0 11.8,-8.4 20.1,0.4 z"
   id="path166" />

			<g
   id="g184">
				<g
   id="g182">
					<path
   d="m 29.4,62.6 0.3,-0.1 c 0.4,-0.1 0.6,-0.3 0.8,-1 h 0.3 c -0.1,0.4 -0.2,0.8 -0.2,1.2 -0.1,0.4 -0.1,0.7 -0.2,1.1 h -0.3 c 0,-0.5 0,-0.9 -0.5,-0.8 h -0.3 l -0.5,1.5 c -0.2,0.6 0,0.6 0.8,0.5 l -0.1,0.3 c -0.5,0.1 -1.1,0.2 -1.7,0.3 -0.5,0.1 -0.8,0.2 -1.6,0.3 l 0.1,-0.3 c 0.8,-0.2 0.9,-0.4 1.1,-1.1 l 0.9,-2.7 c 0.2,-0.8 0.2,-1.1 -0.5,-1 l 0.1,-0.3 c 0.5,0 1.3,-0.1 2,-0.3 0.8,-0.2 1.6,-0.4 2.5,-0.6 l -0.1,1.4 -0.4,0.1 c 0,-1 -0.3,-0.8 -1.3,-0.6 -0.6,0.1 -0.7,0.2 -0.9,0.8 z"
   id="path168" />

					<path
   d="m 33.7,61.1 c 0.1,-0.7 0.2,-0.9 -0.5,-0.9 l 0.1,-0.4 c 0.4,-0.1 0.7,-0.1 1.2,-0.1 0.5,-0.1 0.8,-0.1 1.3,-0.2 v 0.4 c -0.7,0.1 -0.8,0.3 -0.9,1 l -0.7,2.7 C 34,64.5 34,64.7 34.7,64.7 L 34.6,65 c -0.4,0 -0.9,0 -1.4,0 -0.4,0 -1,0.1 -1.5,0.1 l 0.1,-0.3 c 0.7,-0.1 0.9,-0.4 1.1,-1.2 z"
   id="path170" />

					<path
   d="m 36.9,63.7 c -0.1,0.2 -0.2,0.3 -0.3,0.7 -0.2,0.4 0.3,0.5 0.5,0.6 L 37,65.3 c -0.3,0 -0.6,-0.1 -0.9,-0.1 -0.3,0 -0.6,0 -0.8,0 l 0.1,-0.3 c 0.6,0 0.9,-0.7 1.2,-1.3 0.8,-1.7 1.8,-3.9 1.8,-3.9 l 0.6,0.1 c 0,0 0.7,3.6 0.8,4.4 0.1,0.7 0.1,0.8 0.2,1.1 0,0.2 0.3,0.4 0.5,0.5 l -0.1,0.3 C 40,66 39.7,65.9 39.2,65.8 38.8,65.7 38.4,65.6 37.9,65.6 L 38,65.2 c 0.3,0 0.7,0 0.7,-0.4 0,-0.1 -0.1,-0.6 -0.1,-0.7 l -0.1,-0.4 c 0,0 -0.4,-0.1 -0.8,-0.1 -0.4,-0.1 -0.8,-0.1 -0.8,-0.1 z m 1,-0.7 c 0.4,0 0.7,0.1 0.7,0.1 L 38.2,61 37.3,62.9 c 0,0 0.2,0 0.6,0.1 z"
   id="path172" />

					<path
   d="m 44.5,63.4 -0.3,-0.1 c 0,-0.8 0,-1.5 -0.4,-1.7 -0.4,-0.2 -0.5,0 -0.6,0.7 l -0.3,3 c -0.1,0.8 0,1.1 0.6,1.5 v 0.4 C 43,67 42.6,66.8 42.3,66.6 41.9,66.4 41.5,66.3 41,66.1 l 0.1,-0.3 c 0.7,0.2 0.7,0 0.8,-0.8 l 0.3,-3 c 0.1,-0.6 0.2,-1 -0.3,-1.1 -0.6,-0.2 -0.6,0.4 -0.8,1.1 L 40.8,61.9 41,60.2 c 0,0 1.1,0.2 2,0.6 1,0.4 1.7,0.9 1.7,0.9 z"
   id="path174" />

					<path
   d="M 51.4,67.1 C 52,66.7 52,66.4 52,65.7 l -0.2,-3 c 0,-0.8 0,-1.2 -0.7,-0.9 v -0.4 c 0.5,-0.2 0.7,-0.3 1.1,-0.5 0.5,-0.2 0.9,-0.3 1.4,-0.4 v 0.4 C 52.9,61.1 53,61.5 53,62.3 l 0.1,2.5 c 0,0.9 0.1,1.4 1,1.2 1.1,-0.3 1.5,-0.8 1.6,-1.9 H 56 V 66 c -1.4,0.3 -3,0.9 -3.4,1 -0.4,0.2 -0.9,0.4 -1.3,0.6 z"
   id="path176" />

					<path
   d="m 55.6,60.3 c 0.6,-0.1 1,-0.1 1.4,-0.1 0.4,0 0.8,0 1.4,0 v 0.3 c -0.7,0 -0.7,0.5 -0.6,1.2 l 0.2,1.4 c 0.1,1.2 0.5,1.9 1.6,1.8 1.1,0 1.1,-0.6 1,-1.7 L 60.3,62 c 0,-0.3 -0.1,-0.7 -0.3,-1 -0.1,-0.3 -0.3,-0.4 -0.6,-0.4 v -0.3 c 0.3,0 0.6,0.1 0.9,0.1 0.3,0 0.4,0 0.8,0.1 v 0.3 c -0.2,0 -0.4,0.1 -0.5,0.4 -0.1,0.3 0,0.7 0,1 l 0.1,0.8 c 0.2,1.7 0.4,2.5 -1.6,2.6 -1.2,0.1 -2.5,-0.4 -2.7,-2.3 L 56.2,61.8 C 56.1,61 56.1,60.7 55.4,60.7 Z"
   id="path178" />

					<path
   d="m 66.2,65.7 c 0.3,0.4 0.5,0.7 0.9,0.7 l 0.1,0.3 C 66.7,66.6 66.4,66.6 65.9,66.5 65.5,66.4 65.1,66.4 64.6,66.3 V 66 c 0.1,0 0.4,0 0.4,0 0.1,0 0.1,-0.1 0.1,-0.2 0,-0.2 -0.3,-0.6 -0.4,-0.7 L 64,64 63.6,64.6 c -0.1,0.2 -0.3,0.6 -0.3,0.8 0,0.3 0.3,0.4 0.5,0.5 v 0.3 C 63.4,66.1 63.2,66.1 62.8,66 62.5,66 62.2,65.9 62,65.9 v -0.3 c 0.4,0.1 0.6,-0.3 0.8,-0.6 l 0.9,-1.3 -1,-1.5 C 62.6,62 62.5,61.8 62.3,61.6 62.1,61.3 62,61.3 61.8,61.2 v -0.3 c 0.3,0.1 0.7,0.2 1.1,0.3 0.4,0.1 0.8,0.1 1.1,0.2 v 0.4 c -0.2,0 -0.5,-0.1 -0.4,0.2 0,0.2 0.1,0.3 0.2,0.5 l 0.5,0.7 0.3,-0.5 c 0.1,-0.2 0.2,-0.3 0.3,-0.4 0.1,-0.2 -0.2,-0.4 -0.5,-0.4 v -0.3 c 0.3,0 0.5,0.1 0.8,0.1 0.3,0 0.4,0 0.7,0 L 66,62 c -0.4,0 -0.5,0.2 -0.8,0.6 l -0.7,1 z"
   id="path180" />

				</g>

			</g>

		</g>

		<g
   id="g232">
			
			
			
			
			
			
			
			
			
			
			
			
			
			
			
			
			
			
			
			
			
			
		</g>

	</g>
    <g
       transform="matrix(0.26458333,0,0,0.26458333,24.72164,22.472038)"
       class="st10"
       id="Layer_2">
	<g
   id="g319"
   class="st11">
		<g
   id="g253">
			<path
   id="path237"
   d="m 39.2,89.8 c -0.1,0 -0.9,-0.2 -1.3,-0.3 -0.4,-0.1 -0.9,-0.3 -1.5,-0.3 -0.5,0 -2.7,1.2 -2.7,1.2 0.1,0 1.5,-0.5 1.8,-0.5 0.3,0 0.3,0 0.4,0 0,0.3 0.3,0.4 0.7,0.4 0.4,0 0.7,-0.3 0.7,-0.4 0.5,0.2 1.2,0.2 1.5,0.1 0.3,-0.1 0.5,-0.2 0.4,-0.2 z" />

			<path
   id="path239"
   d="m 22.8,41.1 -1.5,-0.4 c 0.2,0.2 0.4,0.3 0.5,0.4 0,0 0,0 0.1,0.1 0.1,0.1 0.2,0.2 0.2,0.3 0.1,0.1 0.1,0.1 0.2,0.2 0,0 0,0 0.1,0.1 0.3,0.3 0.5,0.7 0.5,1.1 v -1.8 z" />

			<path
   id="path241"
   d="m 17.9,17.5 c -0.1,0 -0.7,-0.2 -1,-0.2 -0.3,-0.1 -0.7,-0.3 -1.2,-0.3 -0.4,0 -2.2,0.9 -2.2,0.9 0.1,0 1.2,-0.4 1.5,-0.4 0.2,0 0.2,0 0.4,0 0,0.2 0.2,0.3 0.5,0.3 0.3,0 0.5,-0.2 0.6,-0.3 0.4,0.1 0.9,0.1 1.2,0.1 0.1,0 0.2,-0.1 0.2,-0.1 z" />

			<path
   id="path243"
   d="m 44.1,119.5 c 0.1,0 0.1,0 0,0 0.2,0.2 0.3,0.3 0.4,0.4 0.1,0.1 0.2,0.2 0.2,0.3 0,0 0,0.1 0.1,0.1 0.3,0.4 0.6,0.9 0.6,1.3 v -2.2 l -1.9,-0.5 c 0.3,0.2 0.5,0.4 0.6,0.6 z" />

			<polygon
   id="polygon245"
   points="" />

			<path
   id="path247"
   d="m 62.6,17.5 c -0.1,0 -0.7,-0.2 -1,-0.2 -0.3,-0.1 -0.7,-0.3 -1.2,-0.3 -0.4,0 -2.2,0.9 -2.2,0.9 0.1,0 1.2,-0.4 1.5,-0.4 0.2,0 0.2,0 0.4,0 0,0.2 0.2,0.3 0.5,0.3 0.3,0 0.5,-0.2 0.6,-0.3 0.4,0.1 0.9,0.1 1.2,0.1 0.1,0 0.2,-0.1 0.2,-0.1 z" />

			<path
   id="path249"
   d="M 94.1,2.9 C 94.1,2.9 76.3,0 47.8,0 19.3,0 1.6,2.9 1.6,2.9 c 0,0 -9.6,70.8 18.3,113.2 9.5,14.4 27.9,28.5 27.9,28.6 v 0 0 0 0 0 0 c 0.1,0 18.5,-14.2 27.9,-28.6 C 103.8,73.7 94.1,2.9 94.1,2.9 Z M 18.8,39.6 c -4.1,-2.1 -7,-7 -4.3,-12 C 17,23 17.2,21.1 16.8,20.4 16.4,19.7 13.5,20 13.5,20 c 0,0 -0.4,0.1 -0.8,0.2 V 19 c 0,0 -0.2,-0.5 -0.6,-0.3 0,0 0.2,0.1 0.2,0.5 0,0.4 0,1 0,1 -0.1,0.8 -0.3,1.6 -0.5,2.3 0.1,0.1 0.3,0.3 0.4,0.4 0.1,0.1 0.3,0.4 0.2,0.8 -0.2,0.4 -0.4,1 -0.6,1.1 -0.2,0.2 -0.2,0.6 -0.3,0.6 0,0 -0.2,-0.4 -0.3,-0.6 0,0 -0.1,-0.1 -0.1,-0.1 -0.2,0.4 -0.4,0.6 -0.6,0.7 -0.2,0.1 -0.7,0.2 -0.8,0.1 -0.2,0 -0.4,0.1 -0.6,0.2 0,-0.1 0,-0.3 0,-0.4 0,-0.1 -0.2,-0.2 -0.2,-0.5 0,-0.1 0,-0.7 0.3,-1.1 -0.4,-0.1 -0.7,-0.3 -0.8,-0.5 0.8,-0.3 0.7,-1.3 1.4,-1.4 0.2,0 1,0.3 1.4,0.4 0.3,-0.8 0.4,-1.5 0.5,-2.2 -0.3,-0.2 -0.6,-0.4 -0.6,-1 0,0 -2.6,-0.7 -3.6,0.8 0,0 -2.3,-3.9 6.6,-3.1 0,0 1.4,-1.3 3.5,-0.9 4.6,1 6.3,-0.2 6.9,-0.9 0,0 -2,3.7 -3.7,5.1 -1.7,1.3 -5.6,7.8 -0.8,8.4 -1.2,-2.3 -1.7,-4.3 1.3,-2.4 0,0 4,2.8 6.2,-2.9 0,0 -0.5,-1.1 1.1,-1.5 1.6,-0.4 11.6,-0.2 16.5,-3.9 0,0 -0.5,3.3 -2,7.1 l -3.4,-0.5 3.1,1.4 c -0.7,1.7 -1.7,3.5 -2.9,5 l -3,-1.6 2.4,2.4 c -1.5,1.7 -3.3,3 -5.5,3.7 l -2.2,-4.1 1.1,4.4 c -0.8,0.1 -1.6,0.2 -2.5,0.1 -0.3,0 -0.7,-0.1 -1,-0.1 2.5,2.7 4.6,5.9 4.7,9.1 0,0 -1.6,-3.8 -4.8,-4.3 l 0.7,1.8 c 0,0 -3,-1.7 -4.8,-1.3 -0.1,0 -0.1,0 -0.2,0 -1.4,3 -0.4,6.8 -0.4,6.8 2.3,0.5 4.4,1.7 4.4,1.7 -3.9,-0.4 -5.3,-0.6 -8.1,-0.3 -1.4,0.1 -3.2,1.3 -3.2,1.3 0.2,-2.4 5.5,-3.4 5.5,-3.4 0,-3.7 -2.8,-6.3 -4.2,-7.3 z m 51.7,59.3 -4.3,-0.7 3.9,1.7 c -0.9,2.1 -2.1,4.3 -3.6,6.3 l -3.7,-2 3,3 c -1.8,2.1 -4.1,3.8 -6.9,4.6 l -2.8,-5.2 1.4,5.5 c -1,0.2 -2.1,0.2 -3.2,0.1 -0.4,0 -0.9,-0.1 -1.3,-0.2 3.1,3.4 5.7,7.4 5.9,11.4 0,0 -2,-4.8 -6,-5.4 l 0.9,2.3 c 0,0 -3.8,-2.1 -6,-1.7 -0.1,0 -0.1,0 -0.2,0 -1.8,3.7 -0.5,8.5 -0.5,8.5 2.9,0.6 5.5,2.1 5.5,2.1 -4.9,-0.5 -6.7,-0.7 -10.1,-0.4 -1.8,0.2 -4,1.6 -4,1.6 0.2,-3 6.9,-4.3 6.9,-4.3 0.5,-4.3 -3.1,-7.5 -4.9,-8.8 -5.2,-2.7 -8.8,-8.8 -5.4,-15.1 3.2,-5.8 3.4,-8.1 2.9,-9 -0.5,-0.9 -4.1,-0.5 -4.1,-0.5 0,0 -0.5,0.1 -1,0.2 v -1.5 c 0,0 -0.3,-0.7 -0.7,-0.3 0,0 0.2,0.1 0.3,0.6 0,0.5 0,1.3 0,1.3 -0.1,1 -0.3,2 -0.6,2.8 0.1,0.2 0.4,0.4 0.5,0.5 0.1,0.1 0.4,0.5 0.2,1 -0.2,0.5 -0.5,1.2 -0.7,1.4 -0.2,0.2 -0.2,0.7 -0.3,0.7 0,0 -0.2,-0.5 -0.4,-0.7 0,0 -0.1,-0.1 -0.2,-0.1 -0.2,0.5 -0.5,0.8 -0.7,0.9 -0.3,0.2 -0.8,0.2 -1,0.2 -0.2,0 -0.5,0.2 -0.7,0.3 0,-0.1 0,-0.3 0,-0.5 0,-0.2 -0.3,-0.3 -0.3,-0.6 0,-0.1 0,-0.9 0.4,-1.4 -0.5,-0.1 -0.9,-0.4 -1,-0.6 1,-0.4 0.9,-1.6 1.7,-1.8 0.3,0 1.3,0.4 1.7,0.4 0.4,-1 0.5,-1.9 0.6,-2.7 -0.4,-0.2 -0.7,-0.6 -0.8,-1.2 0,0 -3.3,-0.9 -4.5,1 0,0 -2.9,-4.9 8.3,-3.9 0,0 1.8,-1.6 4.4,-1.1 5.8,1.2 7.9,-0.3 8.6,-1.1 0,0 -2.5,4.7 -4.7,6.4 -2.1,1.6 -7,9.8 -1.1,10.5 -1.5,-2.9 -2.2,-5.4 1.6,-3.1 0,0 5,3.6 7.7,-3.7 0,0 -0.6,-1.4 1.4,-1.9 2,-0.5 14.6,-0.3 20.7,-4.9 -0.3,0.2 -0.9,4.4 -2.8,9.1 z m 3.1,-22.5 -1.6,-0.8 0.6,1.6 c 0,0 -0.4,-0.3 -1.1,-0.7 l 0.3,0.8 c 0,0 -0.6,0.3 -1,0.4 -0.4,0.1 -10.8,-9 -22.7,2.3 -1.3,1.2 -1.4,1.6 -3,0 C 34.6,69.3 22.4,78 22.4,78 l -0.7,-0.4 0.4,-0.9 C 21.4,77 21,77.2 21,77.2 l 0.8,-1.9 c -1.1,0.5 -1.7,0.9 -1.7,0.9 l 0.6,-1.4 c -0.7,0.3 -1,0.5 -1,0.5 l 7,-17.4 c 9.6,-8.5 20.5,-0.4 20.5,-0.4 0,0 11.8,-8.5 20,0.2 l 6.6,17.5 -1,-0.4 z m 13.9,-51.6 -3.4,-0.5 3.1,1.4 c -0.7,1.7 -1.7,3.5 -2.9,5 l -3,-1.6 2.4,2.4 c -1.5,1.7 -3.3,3 -5.5,3.7 l -2.2,-4.3 1.1,4.4 c -0.8,0.1 -1.6,0.2 -2.5,0.1 -0.3,0 -0.7,-0.1 -1,-0.1 2.5,2.7 4.6,5.9 4.7,9.1 0,0 -1.6,-3.8 -4.8,-4.3 l 0.7,1.8 c 0,0 -3,-1.7 -4.8,-1.3 -0.1,0 -0.1,0 -0.2,0 -1.4,3 -0.4,6.8 -0.4,6.8 2.3,0.5 4.4,1.7 4.4,1.7 -3.9,-0.4 -5.3,-0.6 -8.1,-0.3 -1.4,0.1 -3.2,1.3 -3.2,1.3 0.2,-2.4 5.5,-3.4 5.5,-3.4 0.4,-3.4 -2.5,-6 -3.9,-7 -4.1,-2.1 -7,-7 -4.3,-12 2.5,-4.6 2.7,-6.5 2.3,-7.2 C 61,19.7 58.2,20 58.2,20 c 0,0 -0.4,0.1 -0.8,0.2 V 19 c 0,0 -0.2,-0.5 -0.6,-0.3 0,0 0.2,0.1 0.2,0.5 0,0.4 0,1 0,1 -0.1,0.8 -0.3,1.6 -0.5,2.3 0.1,0.1 0.3,0.3 0.4,0.4 0.1,0.1 0.3,0.4 0.2,0.8 -0.2,0.4 -0.4,1 -0.6,1.1 -0.2,0.2 -0.2,0.6 -0.3,0.6 0,0 -0.2,-0.4 -0.3,-0.6 0,0 -0.1,-0.1 -0.1,-0.1 -0.2,0.4 -0.4,0.6 -0.6,0.7 -0.2,0.1 -0.7,0.2 -0.8,0.1 -0.2,0 -0.4,0.1 -0.6,0.2 0,-0.1 0,-0.3 0,-0.4 0,-0.1 -0.2,-0.2 -0.2,-0.5 0,-0.1 0,-0.7 0.3,-1.1 -0.4,-0.1 -0.7,-0.3 -0.8,-0.5 0.8,-0.3 0.7,-1.3 1.4,-1.4 0.2,0 1,0.3 1.4,0.4 0.3,-0.8 0.4,-1.5 0.5,-2.2 -0.3,-0.2 -0.6,-0.4 -0.6,-1 0,0 -2.6,-0.7 -3.6,0.8 0,0 -2.3,-3.9 6.6,-3.1 0,0 1.4,-1.3 3.5,-0.9 4.6,1 6.3,-0.2 6.9,-0.9 0,0 -2,3.7 -3.7,5.1 -1.7,1.3 -5.6,7.8 -0.8,8.4 C 63.5,26.1 63,24.1 66,26 c 0,0 3.9,2.8 6.2,-2.9 0,0 -0.5,-1.1 1.1,-1.5 1.6,-0.4 11.6,-0.2 16.5,-3.9 -0.3,0 -0.8,3.3 -2.3,7.1 z" />

			<path
   id="path251"
   d="m 66.5,41.1 c 0,0.1 0,0.1 0,0 0.1,0.1 0.2,0.2 0.3,0.3 0.1,0.1 0.1,0.1 0.2,0.2 0,0 0,0 0.1,0.1 0.3,0.3 0.5,0.7 0.5,1.1 V 41.1 L 66,40.7 c 0.2,0.2 0.3,0.3 0.5,0.4 z" />

		</g>

		<g
   id="g271">
			<g
   id="g269">
				<path
   id="path255"
   d="m 29.4,62.6 0.3,-0.1 c 0.4,-0.1 0.6,-0.3 0.8,-1 h 0.3 c -0.1,0.4 -0.2,0.8 -0.2,1.2 -0.1,0.4 -0.1,0.7 -0.2,1.1 h -0.3 c 0,-0.5 0,-0.9 -0.5,-0.8 h -0.3 l -0.5,1.5 c -0.2,0.6 0,0.6 0.8,0.5 l -0.1,0.3 c -0.5,0.1 -1.1,0.2 -1.7,0.3 -0.5,0.1 -0.8,0.2 -1.6,0.3 l 0.1,-0.3 c 0.8,-0.2 0.9,-0.4 1.1,-1.1 l 0.9,-2.7 c 0.2,-0.8 0.2,-1.1 -0.5,-1 l 0.1,-0.3 c 0.5,0 1.3,-0.1 2,-0.3 0.8,-0.2 1.6,-0.4 2.5,-0.6 l -0.1,1.4 -0.4,0.1 c 0,-1 -0.3,-0.8 -1.3,-0.6 -0.6,0.1 -0.7,0.2 -0.9,0.8 z" />

				<path
   id="path257"
   d="m 33.7,61.1 c 0.1,-0.7 0.2,-0.9 -0.5,-0.9 l 0.1,-0.4 c 0.4,-0.1 0.7,-0.1 1.2,-0.1 0.5,-0.1 0.8,-0.1 1.3,-0.2 v 0.4 c -0.7,0.1 -0.8,0.3 -0.9,1 l -0.7,2.7 C 34,64.5 34,64.7 34.7,64.7 L 34.6,65 c -0.4,0 -0.9,0 -1.4,0 -0.4,0 -1,0.1 -1.5,0.1 l 0.1,-0.3 c 0.7,-0.1 0.9,-0.4 1.1,-1.2 z" />

				<path
   id="path259"
   d="m 36.9,63.7 c -0.1,0.2 -0.2,0.3 -0.3,0.7 -0.2,0.4 0.3,0.5 0.5,0.6 L 37,65.3 c -0.3,0 -0.6,-0.1 -0.9,-0.1 -0.3,0 -0.6,0 -0.8,0 l 0.1,-0.3 c 0.6,0 0.9,-0.7 1.2,-1.3 0.8,-1.7 1.8,-3.9 1.8,-3.9 l 0.6,0.1 c 0,0 0.7,3.6 0.8,4.4 0.1,0.7 0.1,0.8 0.2,1.1 0,0.2 0.3,0.4 0.5,0.5 l -0.1,0.3 C 40,66 39.7,65.9 39.2,65.8 38.8,65.7 38.4,65.6 37.9,65.6 L 38,65.2 c 0.3,0 0.7,0 0.7,-0.4 0,-0.1 -0.1,-0.6 -0.1,-0.7 l -0.1,-0.4 c 0,0 -0.4,-0.1 -0.8,-0.1 -0.4,-0.1 -0.8,-0.1 -0.8,-0.1 z m 1,-0.7 c 0.4,0 0.7,0.1 0.7,0.1 L 38.2,61 37.3,62.9 c 0,0 0.2,0 0.6,0.1 z" />

				<path
   id="path261"
   d="m 44.5,63.4 -0.3,-0.1 c 0,-0.8 0,-1.5 -0.4,-1.7 -0.4,-0.2 -0.5,0 -0.6,0.7 l -0.3,3 c -0.1,0.8 0,1.1 0.6,1.5 v 0.4 C 43,67 42.6,66.8 42.3,66.6 41.9,66.4 41.5,66.3 41,66.1 l 0.1,-0.3 c 0.7,0.2 0.7,0 0.8,-0.8 l 0.3,-3 c 0.1,-0.6 0.2,-1 -0.3,-1.1 -0.6,-0.2 -0.6,0.4 -0.8,1.1 L 40.8,61.9 41,60.2 c 0,0 1.1,0.2 2,0.6 1,0.4 1.7,0.9 1.7,0.9 z" />

				<path
   id="path263"
   d="M 51.4,67.1 C 52,66.7 52,66.4 52,65.7 l -0.2,-3 c 0,-0.8 0,-1.2 -0.7,-0.9 v -0.4 c 0.5,-0.2 0.7,-0.3 1.1,-0.5 0.5,-0.2 0.9,-0.3 1.4,-0.4 v 0.4 C 52.9,61.1 53,61.5 53,62.3 l 0.1,2.5 c 0,0.9 0.1,1.4 1,1.2 1.1,-0.3 1.5,-0.8 1.6,-1.9 H 56 V 66 c -1.4,0.3 -3,0.9 -3.4,1 -0.4,0.2 -0.9,0.4 -1.3,0.6 z" />

				<path
   id="path265"
   d="m 55.6,60.3 c 0.6,-0.1 1,-0.1 1.4,-0.1 0.4,0 0.8,0 1.4,0 v 0.3 c -0.7,0 -0.7,0.5 -0.6,1.2 l 0.2,1.4 c 0.1,1.2 0.5,1.9 1.6,1.8 1.1,0 1.1,-0.6 1,-1.7 L 60.3,62 c 0,-0.3 -0.1,-0.7 -0.3,-1 -0.1,-0.3 -0.3,-0.4 -0.6,-0.4 v -0.3 c 0.3,0 0.6,0.1 0.9,0.1 0.3,0 0.4,0 0.8,0.1 v 0.3 c -0.2,0 -0.4,0.1 -0.5,0.4 -0.1,0.3 0,0.7 0,1 l 0.1,0.8 c 0.2,1.7 0.4,2.5 -1.6,2.6 -1.2,0.1 -2.5,-0.4 -2.7,-2.3 L 56.2,61.8 C 56.1,61 56.1,60.7 55.4,60.7 Z" />

				<path
   id="path267"
   d="m 66.2,65.7 c 0.3,0.4 0.5,0.7 0.9,0.7 l 0.1,0.3 C 66.7,66.6 66.4,66.6 65.9,66.5 65.5,66.4 65.1,66.4 64.6,66.3 V 66 c 0.1,0 0.4,0 0.4,0 0.1,0 0.1,-0.1 0.1,-0.2 0,-0.2 -0.3,-0.6 -0.4,-0.7 L 64,64 63.6,64.6 c -0.1,0.2 -0.3,0.6 -0.3,0.8 0,0.3 0.3,0.4 0.5,0.5 v 0.3 C 63.4,66.1 63.2,66.1 62.8,66 62.5,66 62.2,65.9 62,65.9 v -0.3 c 0.4,0.1 0.6,-0.3 0.8,-0.6 l 0.9,-1.3 -1,-1.5 C 62.6,62 62.5,61.8 62.3,61.6 62.1,61.3 62,61.3 61.8,61.2 v -0.3 c 0.3,0.1 0.7,0.2 1.1,0.3 0.4,0.1 0.8,0.1 1.1,0.2 v 0.4 c -0.2,0 -0.5,-0.1 -0.4,0.2 0,0.2 0.1,0.3 0.2,0.5 l 0.5,0.7 0.3,-0.5 c 0.1,-0.2 0.2,-0.3 0.3,-0.4 0.1,-0.2 -0.2,-0.4 -0.5,-0.4 v -0.3 c 0.3,0 0.5,0.1 0.8,0.1 0.3,0 0.4,0 0.7,0 L 66,62 c -0.4,0 -0.5,0.2 -0.8,0.6 l -0.7,1 z" />

			</g>

		</g>

		<g
   id="g317">
			<path
   id="path273"
   d="m 163.6,114.1 c -1,0 -3.7,8.1 -22,8.1 -6.6,0 -6,-1.9 -6,-6.6 V 77.3 c 0,-6.9 5.8,-4.9 5.8,-6.7 0,-0.9 -0.5,-1.1 -1.5,-1.1 -1.2,0 -3.1,0.3 -7.6,0.3 -3.9,0 -6.3,-0.3 -8,-0.3 -1,0 -1.6,0.2 -1.6,1 0,1.6 6.6,1 6.6,5.1 v 40.1 c 0,3.7 -0.2,5.9 -2.2,6.9 -2.5,1.3 -3.3,1.1 -3.5,2.1 0,0.6 0.5,0.8 1.2,0.8 3.2,0 6.5,-0.2 9.6,-0.3 6,-0.2 12,0.3 18,0.3 3.5,0 5.2,0.2 7.8,-2.7 1.9,-2.1 4,-4.8 4,-7.7 0,-0.2 -0.1,-1 -0.6,-1 z" />

			<path
   id="path275"
   d="M 179.5,118.7 V 76.2 c 0,-5.9 5.7,-4.1 5.7,-6 0,-0.6 -0.2,-0.8 -1.5,-0.8 -2.5,0 -4.9,0.3 -7.4,0.3 -2.9,0 -5.8,-0.3 -8.7,-0.3 -0.6,0 -0.8,0.2 -0.8,0.9 0,1.7 6.3,0.2 6.4,5.9 v 40.5 c 0,7.8 -6.2,5.2 -6.2,7.5 0,0.8 0.2,1.2 1.7,1.2 1.1,0 2.8,-0.3 7.6,-0.3 3.4,0 6.8,0.3 8.6,0.3 1.3,0 1.6,-0.2 1.6,-0.8 0,-2.3 -7,-0.5 -7,-5.9 z" />

			<path
   id="path277"
   d="m 242.7,69.4 c -1.1,0 -2.3,0.3 -6.1,0.3 -1.7,0 -3.5,-0.3 -5.2,-0.3 -0.8,0 -1.2,0.2 -1.2,1 0,1.8 5.1,0.3 5.1,4 0.3,1.7 -0.6,4.2 -1.1,5.4 l -13.8,33.9 c -0.4,0.9 -0.6,2.2 -1.4,2.2 -0.9,0 -1.4,-1.8 -3.2,-6 L 202,77.4 c -0.3,-0.7 -0.7,-2 -0.7,-3.1 0,-2.8 3.3,-2.9 3.2,-4 0,-0.5 -0.6,-0.8 -1.1,-0.8 -1.1,0 -4.1,0.3 -6.2,0.3 -2.4,0 -4.8,-0.3 -7.3,-0.3 -0.7,0 -1.1,0.4 -1.1,1.1 0,1.7 4.1,0.2 6.1,5 l 19.5,46.2 c 0.7,1.7 1.7,5 2.9,5 1.2,0 1.7,-2.6 2.6,-4.6 l 19.7,-46.6 c 2.2,-5.3 4.4,-3.3 4.4,-5.1 0.1,-0.7 -0.4,-1.1 -1.3,-1.1 z" />

			<path
   id="path279"
   d="m 288.6,114.1 c -1,0 -3.7,8.1 -22,8.1 -6.6,0 -6,-1.9 -6,-6.6 V 101 c 0,-1.2 -0.2,-2.5 1.4,-2.5 h 11.7 c 6.6,0 4,7 6.4,7 0.6,0 0.9,-0.3 0.9,-1 0,-2.1 -0.2,-4.2 -0.2,-6.2 0,-2.5 0.2,-5.2 0.2,-8 0,-0.6 -0.2,-1.5 -0.9,-1.5 -1.9,0 0.2,6.3 -8,6.3 h -8.5 c -3.2,0 -3,0 -3,-2.7 V 77.8 c 0,-5.3 -0.2,-5 7.4,-5 3.2,0 11.4,-0.5 13.4,2.2 1.3,1.8 0,5.6 1.9,5.6 0.5,0 1.6,-0.6 1.6,-9.4 0,-0.9 -0.2,-1.7 -0.8,-1.7 -2.5,0 -9.7,0.3 -11.3,0.3 -3.3,0 -7.4,-0.3 -22.4,-0.3 -2.3,0 -2.8,0.3 -2.8,0.9 0,0.9 1.7,1.1 2.4,1.3 4.3,0.6 4.3,4.4 4.3,8 v 36.1 c 0,3.7 -0.2,5.9 -2.2,6.9 -2.5,1.3 -3.3,1.1 -3.5,2.1 0,0.6 0.5,0.8 1.2,0.8 3.2,0 6.5,-0.2 9.6,-0.3 6,-0.2 12,0.3 18,0.3 3.5,0 5.2,0.2 7.8,-2.7 1.9,-2.1 4,-4.8 4,-7.7 0,-0.3 -0.1,-1.1 -0.6,-1.1 z" />

			<path
   id="path281"
   d="m 420.2,68.7 c -16.2,0 -29,11.9 -29,28.4 0,16.7 10.5,28.9 27.7,28.9 17.6,0 29.9,-11.5 29.9,-29.3 -0.1,-16.3 -12.5,-28 -28.6,-28 z m 2,54.9 c -15.7,0 -25.2,-14.2 -25.2,-28.8 0,-12.5 7.6,-23.5 20.9,-23.5 15.4,0 25.1,14 25.1,28.4 0,14.7 -9.3,23.9 -20.8,23.9 z" />

			<path
   id="path283"
   d="m 483.7,68.7 c -16.2,0 -29,11.9 -29,28.4 0,16.7 10.5,28.9 27.7,28.9 17.6,0 29.9,-11.5 29.9,-29.3 -0.1,-16.3 -12.5,-28 -28.6,-28 z m 2,54.9 c -15.7,0 -25.2,-14.2 -25.2,-28.8 0,-12.5 7.6,-23.5 20.9,-23.5 15.4,0 25.2,14 25.2,28.4 -0.1,14.7 -9.4,23.9 -20.9,23.9 z" />

			<path
   id="path285"
   d="m 556,114.1 c -1,0 -3.7,8.1 -22,8.1 -6.6,0 -6,-1.9 -6,-6.6 V 77.3 c 0,-6.9 5.8,-4.9 5.8,-6.7 0,-0.9 -0.5,-1.1 -1.5,-1.1 -1.2,0 -3.1,0.3 -7.6,0.3 -3.9,0 -6.3,-0.3 -8,-0.3 -1,0 -1.6,0.2 -1.6,1 0,1.6 6.6,1 6.6,5.1 v 40.1 c 0,3.7 -0.2,5.9 -2.2,6.9 -2.5,1.3 -3.3,1.1 -3.5,2.1 0,0.6 0.5,0.8 1.2,0.8 3.2,0 6.5,-0.2 9.7,-0.3 6,-0.2 12,0.3 18,0.3 3.5,0 5.2,0.2 7.7,-2.7 1.9,-2.1 4,-4.8 4,-7.7 0,-0.2 0,-1 -0.6,-1 z" />

			<rect
   id="rect287"
   height="1.2"
   width="462.10001"
   y="56.700001"
   x="104.9" />

			<rect
   id="rect289"
   height="27.700001"
   width="3.4000001"
   y="17.5"
   x="203.7" />

			<polygon
   id="polygon291"
   points="280.6,42.2 265.9,42.2 265.9,32.6 280.3,32.6 280.3,29.5 265.9,29.5 265.9,20.6 280.6,20.6 280.6,17.5 262.5,17.5 262.5,45.3 280.6,45.3 " />

			<polygon
   id="polygon293"
   points="248.1,17.5 244.2,17.5 234.8,41.5 225.5,17.5 221.5,17.5 232.7,45.3 237,45.3 " />

			<polygon
   id="polygon295"
   points="167,17.5 163.5,17.5 163.5,45.3 167,45.3 167,23.1 183.1,45.3 186.4,45.3 186.4,17.5 183,17.5 183,39.2 " />

			<path
   id="path297"
   d="m 134.9,45.8 c 7.5,0 11.3,-4.4 11.3,-11.3 v -17 h -3.5 v 16.9 c 0,5.1 -2.7,8.3 -7.9,8.3 -5.1,0 -7.8,-3.2 -7.8,-8.3 V 17.5 h -3.5 v 17 c 0.1,6.8 3.9,11.3 11.4,11.3 z" />

			<polygon
   id="polygon299"
   points="542.7,17.5 524.6,17.5 524.6,45.3 528,45.3 528,32.6 542.4,32.6 542.4,29.5 528,29.5 528,20.6 542.7,20.6 " />

			<polygon
   id="polygon301"
   points="434.7,45.3 438.1,45.3 438.1,33.5 449,17.5 445,17.5 436.4,30.4 427.8,17.5 423.7,17.5 434.7,33.5 " />

			<polygon
   id="polygon303"
   points="409.4,17.5 388.3,17.5 388.3,20.6 397.1,20.6 397.1,45.3 400.6,45.3 400.6,20.6 409.4,20.6 " />

			<path
   id="path305"
   d="m 301.3,34.2 h 5.6 l 7,11 H 318 L 310.5,34 c 3.8,-0.3 7.2,-3.1 7.2,-8.1 0,-5.1 -3.7,-8.4 -8.7,-8.4 h -11.1 v 27.7 h 3.4 z m 0,-13.6 h 7.3 c 3.3,0 5.6,2.1 5.6,5.3 0,3.1 -2.3,5.3 -5.6,5.3 h -7.3 z" />

			<path
   id="path307"
   d="m 494.6,45.8 c 8.2,0 13.8,-6.2 13.8,-14.3 0,-8.2 -5.6,-14.3 -13.8,-14.3 -8.2,0 -13.8,6.2 -13.8,14.3 0.1,8.1 5.6,14.3 13.8,14.3 z m 0,-25.6 c 6.2,0 10.2,4.8 10.2,11.3 0,6.4 -4,11.3 -10.2,11.3 -6.2,0 -10.2,-4.8 -10.2,-11.3 0,-6.6 4,-11.3 10.2,-11.3 z" />

			<rect
   id="rect309"
   height="27.700001"
   width="3.4000001"
   y="17.5"
   x="368.70001" />

			<path
   id="path311"
   d="m 343,42.7 c -3.9,0 -6.9,-1.9 -8.7,-4 l -2.1,2.7 c 2.3,2.6 5.9,4.4 10.6,4.4 7.5,0 10.2,-4.2 10.2,-8.1 0,-10.3 -16.4,-6.8 -16.4,-13 0,-2.6 2.4,-4.4 5.7,-4.4 3,0 5.9,1 8,3.3 l 2.1,-2.5 c -2.3,-2.5 -5.6,-3.9 -9.8,-3.9 -5.5,0 -9.6,3.2 -9.6,7.7 0,9.9 16.4,5.9 16.4,13 0.1,2.1 -1.5,4.8 -6.4,4.8 z" />

			<path
   id="path313"
   d="m 359.4,74.6 c 0,-2.4 1.7,-2.4 4.3,-2.4 9.1,0 16.5,5.1 16.5,14.6 0,7.1 -4.7,11 -12.8,11 -2.8,0 -4.5,-0.5 -5.1,-0.5 -0.4,0 -0.8,0.2 -0.8,0.7 0,1.4 4.6,1.8 5.4,1.8 16.8,0 19.2,-12 19.2,-15.2 0,-11.8 -11.1,-15.3 -21.2,-15.3 -3.8,0 -5.1,0.3 -9,0.3 -4.6,0 -7.4,-0.3 -8.1,-0.3 -0.6,0 -1,0.6 -1,1.2 0,2.8 6.5,-2 6.5,7.5 v 38 c 0,8.8 -6.2,6.3 -6.2,8.5 0,0.7 0.8,0.9 1.3,0.9 2.3,0 4.9,-0.3 8.6,-0.3 4.7,0 5.9,0.3 8.5,0.3 2,0 2.3,-0.4 2.3,-0.9 0,-2.7 -8.3,1.4 -8.3,-10 V 74.6 Z" />

			<path
   id="path315"
   d="m 321.4,96.8 c 5.5,-2.2 10,-7.5 10,-13.7 0,-15.3 -17.5,-13.7 -18.7,-13.7 -4.1,0 -8.6,0.3 -13.2,0.3 -4,0 -3.6,-0.3 -5.1,-0.3 -0.9,0 -1.6,0.5 -1.6,0.9 0,2.7 6.8,-0.6 6.8,7 v 40.3 c 0,6 -5.8,4.9 -5.8,6.9 0,0.5 0.3,0.9 0.8,0.9 3,0 6,-0.3 9,-0.3 6.6,0 8.4,0.3 9.1,0.3 0.6,0 1.3,0.2 1.3,-0.6 0,-2.7 -8.2,-0.2 -8.2,-7 v -16.7 c 0,-0.8 -0.5,-2.2 2.1,-2.2 8.9,0 7.7,-0.2 10.5,4.2 l 8.8,13.8 c 3,4.5 6.1,8.5 11.9,8.5 0.7,0 5.1,0 5.1,-0.9 0,-1.9 -3.9,1 -9.6,-7.7 z M 305.8,75 c 0,-3.1 1.7,-2.9 4.5,-2.9 7.7,0 15.1,3.2 15.1,12.9 0,9.8 -7.6,11.2 -11,11.2 -3.7,0 -8.6,0.4 -8.6,-1.1 z" />

		</g>

	</g>

</g>
  </g>
  <style
     type="text/css"
     id="style26">
	.st0{fill:#1F2B7D;}
	.st1{fill:none;}
	.st2{fill:#FFFFFF;}
	.st3{fill:url(#SVGID_1_);}
	.st4{fill:url(#SVGID_2_);}
	.st5{fill:url(#SVGID_3_);}
	.st6{fill:url(#SVGID_4_);}
	.st7{fill:#A17205;}
	.st8{fill:url(#SVGID_5_);}
	.st9{fill:url(#SVGID_6_);}
	.st10{display:none;}
	.st11{display:inline;}
</style>
</svg>
